<?xml version="1.0" encoding="UTF-8"?>
<svg width="579px" height="368px" viewBox="0 0 579 368" version="1.1" xmlns="http://www.w3.org/2000/svg" xmlns:xlink="http://www.w3.org/1999/xlink">
    <!-- Generator: Sketch 63 (92445) - https://sketch.com -->
    <title>1440@2x</title>
    <desc>Created with Sketch.</desc>
    <defs>
        <ellipse id="path-1" cx="42.5453825" cy="182.535983" rx="34.5453825" ry="34.5359834"></ellipse>
        <mask id="mask-2" maskContentUnits="userSpaceOnUse" maskUnits="objectBoundingBox" x="0" y="0" width="69.090765" height="69.0719669" fill="white">
            <use xlink:href="#path-1"></use>
        </mask>
        <ellipse id="path-3" cx="42.8371758" cy="184.387821" rx="34.5453825" ry="34.5359834"></ellipse>
        <mask id="mask-4" maskContentUnits="userSpaceOnUse" maskUnits="objectBoundingBox" x="0" y="0" width="69.090765" height="69.0719669" fill="white">
            <use xlink:href="#path-3"></use>
        </mask>
        <ellipse id="path-5" cx="42.8371758" cy="177.387821" rx="34.5453825" ry="34.5359834"></ellipse>
        <mask id="mask-6" maskContentUnits="userSpaceOnUse" maskUnits="objectBoundingBox" x="0" y="0" width="69.090765" height="69.0719669" fill="white">
            <use xlink:href="#path-5"></use>
        </mask>
    </defs>
    <g id="Page-1" stroke="none" stroke-width="1" fill="none" fill-rule="evenodd">
        <g id="IndexPage_1440" transform="translate(-428.000000, -1169.000000)">
            <g id="block_2" transform="translate(331.000000, 1168.000000)">
                <g id="1440" transform="translate(83.596631, 0.435514)">
                    <g id="Group-3" transform="translate(224.403369, 0.564486)">
                        <circle id="Oval" stroke="#6BA462" stroke-width="4" cx="75" cy="75" r="73"></circle>
                        <g id="Group" transform="translate(41.000000, 38.000000)" fill="#333333" fill-rule="nonzero">
                            <path d="M10.632334,16.2683824 L10.632334,13.7119223 L7.997567,13.7119223 L7.997567,2.55646008 L10.2126366,2.55646008 L10.2126366,5.36856618 L12.777454,5.36856618 L12.777454,0 L0,0 L0,5.36856618 L2.5648174,5.36856618 L2.5648174,2.55646008 L4.8032035,2.55646008 L4.8032035,13.7119223 L2.14512001,13.7119223 L2.14512001,16.2683824 L10.632334,16.2683824 Z M20.8916036,16.59375 C21.4667445,16.59375 22.0107966,16.5472689 22.5237601,16.4543067 C23.0367236,16.3613445 23.5069401,16.237395 23.9344097,16.082458 C24.3618792,15.927521 24.7349436,15.7609638 25.0536027,15.5827862 C25.3722619,15.4046087 25.6326297,15.2225578 25.8347062,15.0366334 L25.8347062,15.0366334 L24.8320958,13.061187 C24.4590314,13.3710609 23.9732706,13.6344538 23.3748132,13.8513655 C22.7763558,14.0682773 22.0107966,14.1767332 21.0781358,14.1767332 C20.6118053,14.1767332 20.1726775,14.1263787 19.7607523,14.0256696 C19.348827,13.9249606 18.9835349,13.7661502 18.6648757,13.5492384 C18.3462166,13.3323267 18.0897349,13.0534401 17.8954305,12.7125788 C17.7011262,12.3717174 17.5962018,11.9533876 17.5806575,11.4575893 L17.5806575,11.4575893 L25.9746053,11.4575893 C26.1300488,10.6829044 26.2077706,9.96244748 26.2077706,9.29621849 C26.2077706,8.32011555 26.0406688,7.51444328 25.7064653,6.87920168 C25.3722619,6.24396008 24.9409062,5.73654149 24.4123984,5.3569459 C23.8838905,4.97735032 23.3048636,4.71008403 22.6753175,4.55514706 C22.0457714,4.40021008 21.4356558,4.3227416 20.8449705,4.3227416 C19.9589427,4.3227416 19.1350923,4.4505646 18.3734192,4.70621061 C17.6117462,4.96185662 16.9472253,5.34532563 16.3798566,5.85661765 C15.8124879,6.36790966 15.3655879,7.00702468 15.0391566,7.77396271 C14.7127253,8.54090074 14.5495096,9.43566176 14.5495096,10.4582458 C14.5495096,11.418855 14.6932949,12.2748818 14.9808653,13.0263262 C15.2684357,13.7777705 15.684247,14.4207589 16.2282992,14.9552915 C16.7723514,15.4898241 17.4368723,15.8965336 18.2218618,16.1754202 C19.0068514,16.4543067 19.8967653,16.59375 20.8916036,16.59375 Z M23.3864714,9.2032563 L17.650607,9.2032563 C17.6816957,8.81591387 17.7905062,8.46730567 17.9770383,8.15743172 C18.1635705,7.84755777 18.4006218,7.58803834 18.6881923,7.37887342 C18.9757627,7.16970851 19.2983079,7.01089811 19.6558279,6.90244223 C20.0133479,6.79398634 20.3941844,6.7397584 20.7983375,6.7397584 C21.668821,6.7397584 22.3177975,6.96054359 22.7452671,7.40211397 C23.1727366,7.84368435 23.3864714,8.44406513 23.3864714,9.2032563 L23.3864714,9.2032563 Z M39.8712524,16.2683824 L39.8712524,13.7119223 L32.7597132,13.7119223 L39.8712524,7.20456933 L39.8712524,4.64810924 L28.8658541,4.64810924 L28.8658541,7.20456933 L36.0473428,7.20456933 L28.8658541,13.7119223 L28.8658541,16.2683824 L39.8712524,16.2683824 Z M48.3584663,16.59375 C49.2911272,16.59375 50.1344081,16.4581801 50.8883089,16.1870404 C51.6422098,15.9159007 52.2911863,15.516938 52.8352385,14.9901523 C53.3792907,14.4633666 53.7989881,13.8203782 54.0943307,13.061187 C54.3896733,12.3019958 54.5373446,11.4343487 54.5373446,10.4582458 C54.5373446,9.54411765 54.4013316,8.70745798 54.1293055,7.94826681 C53.8572794,7.18907563 53.4570124,6.54221376 52.9285046,6.0076812 C52.3999968,5.47314863 51.7510202,5.05869223 50.981575,4.76431197 C50.2121298,4.46993172 49.3377602,4.3227416 48.3584663,4.3227416 C47.4258054,4.3227416 46.5825246,4.45831145 45.8286237,4.72945116 C45.0747228,5.00059086 44.4257463,5.39955357 43.8816941,5.92633929 C43.3376419,6.453125 42.9179446,7.09611345 42.6226019,7.85530462 C42.3272593,8.6144958 42.179588,9.48214286 42.179588,10.4582458 C42.179588,11.3723739 42.3156011,12.2090336 42.5876272,12.9682248 C42.8596532,13.727416 43.2599202,14.3742778 43.788428,14.9088104 C44.3169359,15.443343 44.9659124,15.8577994 45.7353576,16.1521796 C46.5048028,16.4465599 47.3791724,16.59375 48.3584663,16.59375 Z M48.3584663,14.0372899 C47.8765915,14.0372899 47.449122,13.9482012 47.0760576,13.7700236 C46.7029933,13.5918461 46.3843341,13.3400735 46.1200802,13.0147059 C45.8558263,12.6893382 45.6537498,12.3097426 45.5138507,11.8759191 C45.3739515,11.4420956 45.304002,10.9695378 45.304002,10.4582458 C45.304002,9.8230042 45.3817237,9.28072479 45.5371672,8.83140756 C45.6926107,8.38209034 45.9063454,8.0102416 46.1783715,7.71586134 C46.4503976,7.42148109 46.7729428,7.20844275 47.1460072,7.07674632 C47.5190715,6.94504989 47.9232246,6.87920168 48.3584663,6.87920168 C49.3377602,6.87920168 50.0916611,7.20844275 50.6201689,7.86692489 C51.1486768,8.52540704 51.4129307,9.38918067 51.4129307,10.4582458 C51.4129307,11.6977416 51.1292463,12.6041229 50.5618776,13.1773897 C49.9945089,13.7506565 49.2600385,14.0372899 48.3584663,14.0372899 Z M62.6281777,16.59375 C64.3225116,16.59375 65.6010342,16.2567621 66.4637455,15.5827862 C67.3264568,14.9088104 67.7578125,13.983062 67.7578125,12.805541 C67.7578125,12.1238183 67.5673942,11.5660452 67.1865577,11.1322216 C66.8057212,10.6983981 66.3355047,10.3459165 65.7759081,10.0747768 C65.2163116,9.80363708 64.6023099,9.58285189 63.9339029,9.41242122 C63.265496,9.24199055 62.6514942,9.08318015 62.0918977,8.93599002 C61.5323012,8.78879989 61.0620846,8.6299895 60.6812481,8.45955882 C60.3004116,8.28912815 60.1099933,8.06446954 60.1099933,7.78558298 C60.1099933,7.42922794 60.3120699,7.16583508 60.7162229,6.99540441 C61.1203759,6.82497374 61.6488838,6.7397584 62.3017464,6.7397584 C62.6592664,6.7397584 63.0206725,6.77849265 63.3859647,6.85596113 C63.7512568,6.93342962 64.1010047,7.03413866 64.4352081,7.15808824 C64.7694116,7.28203782 65.0880707,7.41760767 65.3911855,7.56479779 C65.6943003,7.71198792 65.9624403,7.85530462 66.1956055,7.9947479 L66.1956055,7.9947479 L67.4780142,5.92633929 C67.2603934,5.77140231 67.0000255,5.59709821 66.6969108,5.403427 C66.393796,5.20975578 66.0285038,5.03545168 65.6010342,4.88051471 C65.1735647,4.72557773 64.6722594,4.5938813 64.0971186,4.48542542 C63.5219777,4.37696954 62.8535707,4.3227416 62.0918977,4.3227416 C61.3768577,4.3227416 60.7123368,4.40021008 60.0983351,4.55514706 C59.4843333,4.71008403 58.9558255,4.93861607 58.5128116,5.24074317 C58.0697977,5.54287027 57.7200498,5.91084559 57.4635681,6.34466912 C57.2070864,6.77849265 57.0788455,7.28203782 57.0788455,7.85530462 C57.0788455,8.55252101 57.2692638,9.12191439 57.6501003,9.56348477 C58.0309368,10.0050551 58.5011533,10.369157 59.0607498,10.6557904 C59.6203464,10.9424238 60.2343481,11.1670825 60.9027551,11.3297663 C61.571162,11.4924501 62.1851638,11.6512605 62.7447603,11.8061975 C63.3043568,11.9611345 63.7745734,12.1315651 64.1554099,12.3174895 C64.5362464,12.5034139 64.7266647,12.751313 64.7266647,13.061187 C64.7266647,13.4640231 64.5479047,13.7506565 64.1903847,13.9210872 C63.8328647,14.0915179 63.4053951,14.1767332 62.907976,14.1767332 C62.4416455,14.1767332 61.971429,14.1186318 61.4973264,14.0024291 C61.0232238,13.8862264 60.5763238,13.7429097 60.1566264,13.572479 C59.736929,13.4020483 59.3599785,13.2122505 59.0257751,13.0030856 C58.6915716,12.7939207 58.4234316,12.6041229 58.2213551,12.4336922 L58.2213551,12.4336922 L56.8223638,14.6183036 C57.413049,15.1450893 58.1941525,15.6060268 59.1656742,16.0011161 C60.1371959,16.3962054 61.2913638,16.59375 62.6281777,16.59375 Z" id="TezosGigaNode"></path>
                            <path d="M9.89187146,72.9636949 L9.89187146,65.2710741 L9.75443412,63.3421087 L9.86896524,63.3421087 L15.3435525,72.9636949 L18.0922992,72.9636949 L18.0922992,56.6953125 L15.1144902,56.6953125 L15.1144902,64.6900604 L15.3206463,66.6422663 L15.2061151,66.6422663 L9.66280923,56.6953125 L6.9140625,56.6953125 L6.9140625,72.9636949 L9.89187146,72.9636949 Z M26.2469145,73.2890625 C27.1631634,73.2890625 27.9916051,73.1534926 28.7322397,72.8823529 C29.4728742,72.6112132 30.1104307,72.2122505 30.6449093,71.6854648 C31.1793878,71.1586791 31.5916998,70.5156907 31.8818453,69.7564995 C32.1719908,68.9973083 32.3170635,68.1296612 32.3170635,67.1535583 C32.3170635,66.2394301 32.1834439,65.4027705 31.9162046,64.6435793 C31.6489654,63.8843881 31.2557419,63.2375263 30.7365342,62.7029937 C30.2173264,62.1684611 29.5797699,61.7540047 28.8238646,61.4596245 C28.0679592,61.1652442 27.2089759,61.0180541 26.2469145,61.0180541 C25.3306656,61.0180541 24.5022239,61.1536239 23.7615893,61.4247637 C23.0209548,61.6959034 22.3833983,62.0948661 21.8489197,62.6216518 C21.3144412,63.1484375 20.9021292,63.7914259 20.6119837,64.5506171 C20.3218382,65.3098083 20.1767655,66.1774554 20.1767655,67.1535583 C20.1767655,68.0676864 20.3103851,68.9043461 20.5776244,69.6635373 C20.8448636,70.4227285 21.2380871,71.0695903 21.7572948,71.6041229 C22.2765026,72.1386555 22.9140591,72.5531119 23.6699644,72.8474921 C24.4258698,73.1418724 25.2848531,73.2890625 26.2469145,73.2890625 Z M26.2469145,70.7326024 C25.7735192,70.7326024 25.3535718,70.6435137 24.9870723,70.4653361 C24.6205727,70.2871586 24.307521,70.035386 24.0479171,69.7100184 C23.7883133,69.3846507 23.5897927,69.0050551 23.4523553,68.5712316 C23.314918,68.1374081 23.2461993,67.6648503 23.2461993,67.1535583 C23.2461993,66.5183167 23.3225534,65.9760373 23.4752616,65.5267201 C23.6279697,65.0774028 23.8379434,64.7055541 24.1051827,64.4111738 C24.3724219,64.1167936 24.6892914,63.9037553 25.0557909,63.7720588 C25.4222905,63.6403624 25.8193317,63.5745142 26.2469145,63.5745142 C27.2089759,63.5745142 27.9496104,63.9037553 28.4688181,64.5622374 C28.9880258,65.2207195 29.2476297,66.0844932 29.2476297,67.1535583 C29.2476297,68.3930541 28.9689373,69.2994354 28.4115526,69.8727022 C27.8541678,70.445969 27.1326218,70.7326024 26.2469145,70.7326024 Z M38.8224308,73.2890625 C39.2042012,73.2890625 39.5859716,73.2464548 39.9677419,73.1612395 C40.3495123,73.0760242 40.7007411,72.9520746 41.0214282,72.7893908 C41.3421153,72.6267069 41.6322608,72.4369091 41.8918646,72.2199974 C42.1514685,72.0030856 42.3576245,71.7551864 42.5103327,71.4762999 L42.5103327,71.4762999 L42.6019576,71.4762999 L42.8997384,72.9636949 L46.5876403,72.9636949 L46.5876403,70.4072348 L45.1216421,70.4072348 C45.1063712,70.3297663 45.0987358,70.2522978 45.0987358,70.1748293 C44.9765693,69.0437894 44.9154861,67.8972558 44.9154861,66.7352285 L44.9154861,66.7352285 L44.9154861,56.6953125 L40.1280855,56.6953125 L40.1280855,59.2517726 L41.9376771,59.2517726 L41.9376771,61.4131434 C41.6322608,61.2891938 41.2695789,61.200105 40.8496315,61.1458771 C40.4296841,61.0916492 39.9830128,61.0645352 39.5096175,61.0645352 C38.6544518,61.0645352 37.8680048,61.2078519 37.1502765,61.4944853 C36.4325482,61.7811187 35.8102625,62.1917017 35.2834194,62.7262342 C34.7565763,63.2607668 34.3442642,63.9153755 34.0464834,64.6900604 C33.7487025,65.4647453 33.599812,66.347886 33.599812,67.3394827 C33.599812,68.3620667 33.7372493,69.2490809 34.012124,70.0005252 C34.2869987,70.7519695 34.6611337,71.3717174 35.1345289,71.8597689 C35.6079242,72.3478204 36.1614913,72.7080488 36.7952301,72.9404543 C37.4289689,73.1728598 38.1047025,73.2890625 38.8224308,73.2890625 Z M39.5096175,70.7326024 C38.5933686,70.7326024 37.8909111,70.4304753 37.402245,69.8262211 C36.9135789,69.2219669 36.6692459,68.4240415 36.6692459,67.4324449 C36.6692459,66.7352285 36.757053,66.146468 36.9326674,65.6661633 C37.1082818,65.1858587 37.3449794,64.7946429 37.6427603,64.4925158 C37.9405412,64.1903887 38.2841346,63.9696035 38.6735403,63.8301602 C39.0629461,63.6907169 39.463805,63.6209953 39.876117,63.6209953 C40.2884291,63.6209953 40.6816525,63.6636029 41.0557875,63.7488183 C41.4299225,63.8340336 41.7238857,63.9618566 41.9376771,64.1322873 L41.9376771,64.1322873 L41.9376771,69.0592831 C41.8002398,69.6015625 41.5062766,70.0160189 41.0557875,70.3026523 C40.6052985,70.5892857 40.0899085,70.7326024 39.5096175,70.7326024 Z M54.2383187,73.2890625 C54.8033389,73.2890625 55.3378174,73.2425814 55.8417543,73.1496192 C56.3456912,73.056657 56.8076334,72.9327075 57.2275808,72.7777705 C57.6475282,72.6228335 58.0140278,72.4562763 58.3270795,72.2780987 C58.6401312,72.0999212 58.8959173,71.9178703 59.0944379,71.7319459 L59.0944379,71.7319459 L58.1094704,69.7564995 C57.7429708,70.0663734 57.2657578,70.3297663 56.6778314,70.546678 C56.0899051,70.7635898 55.3378174,70.8720457 54.4215685,70.8720457 C53.963444,70.8720457 53.5320435,70.8216912 53.1273669,70.7209821 C52.7226903,70.6202731 52.3638261,70.4614627 52.0507744,70.2445509 C51.7377227,70.0276392 51.4857543,69.7487526 51.2948691,69.4078913 C51.1039839,69.0670299 51.0009059,68.6487001 50.9856351,68.1529018 L50.9856351,68.1529018 L59.2318753,68.1529018 C59.3845834,67.3782169 59.4609375,66.65776 59.4609375,65.991531 C59.4609375,65.015428 59.2967762,64.2097558 58.9684537,63.5745142 C58.6401312,62.9392726 58.2163661,62.431854 57.6971583,62.0522584 C57.1779506,61.6726628 56.6091128,61.4053965 55.9906448,61.2504596 C55.3721767,61.0955226 54.7727972,61.0180541 54.1925063,61.0180541 C53.3220698,61.0180541 52.5127166,61.1458771 51.7644467,61.4015231 C51.0161767,61.6571691 50.3633494,62.0406381 49.8059646,62.5519301 C49.2485799,63.0632222 48.8095439,63.7023372 48.4888568,64.4692752 C48.1681697,65.2362132 48.0078261,66.1309743 48.0078261,67.1535583 C48.0078261,68.1141675 48.1490812,68.9701943 48.4315912,69.7216387 C48.7141013,70.473083 49.1225956,71.1160714 49.6570742,71.650604 C50.1915527,72.1851366 50.84438,72.5918461 51.6155562,72.8707327 C52.3867324,73.1496192 53.2609865,73.2890625 54.2383187,73.2890625 Z M56.6892845,65.8985688 L51.0543537,65.8985688 C51.0848954,65.5112264 51.1917911,65.1626182 51.3750409,64.8527442 C51.5582906,64.5428703 51.7911706,64.2833508 52.0736807,64.0741859 C52.3561907,63.865021 52.6730602,63.7062106 53.0242889,63.5977547 C53.3755177,63.4892988 53.7496526,63.4350709 54.1466938,63.4350709 C55.0018595,63.4350709 55.639416,63.6558561 56.0593634,64.0974265 C56.4793108,64.5389968 56.6892845,65.1393776 56.6892845,65.8985688 L56.6892845,65.8985688 Z" id="TezosGigaNode-Copy-2"></path>
                            <path d="M14.3590582,45.3460954 C15.2431514,45.3460954 16.1078567,45.22663 16.9531739,44.9876991 C17.7984911,44.7487682 18.4848266,44.3978385 19.0121805,43.9349099 L19.0121805,43.9349099 L19.0121805,36.8565824 L13.4516993,36.8565824 L13.4516993,39.0965595 L16.406432,39.0965595 L16.406432,42.2101276 C16.2823487,42.2997266 16.0535702,42.3893257 15.7200965,42.4789248 C15.3866227,42.5685239 15.0182505,42.6133234 14.6149799,42.6133234 C13.9945636,42.6133234 13.4168009,42.493858 12.8816919,42.2549271 C12.3465828,42.0159962 11.8851482,41.6650665 11.497388,41.2021379 C11.1096278,40.7392093 10.8071748,40.1717484 10.5900291,39.4997553 C10.3728834,38.8277622 10.2643106,38.06617 10.2643106,37.2149787 C10.2643106,36.2592552 10.3728834,35.4379303 10.5900291,34.751004 C10.8071748,34.0640777 11.1135054,33.5003501 11.5090208,33.0598213 C11.9045362,32.6192925 12.373726,32.2944958 12.9165903,32.0854313 C13.4594545,31.8763668 14.04885,31.7718345 14.6847767,31.7718345 C15.0570265,31.7718345 15.3982555,31.8017009 15.7084637,31.8614336 L15.7084637,31.8614336 L16.0807134,31.9510327 L16.0807134,34.4374072 L18.6399307,34.4374072 L18.6399307,29.8006547 C18.1280873,29.576657 17.5619574,29.3937255 16.9415411,29.2518603 C16.3211248,29.1099951 15.5456044,29.0390625 14.6149799,29.0390625 C13.7153763,29.0390625 12.8080174,29.1883943 11.8929034,29.4870579 C10.9777893,29.7857215 10.1518601,30.25985 9.41511574,30.9094433 C8.67837137,31.5590367 8.07734308,32.3915615 7.61203085,33.4070178 C7.14671862,34.422474 6.9140625,35.6544614 6.9140625,37.1029799 C6.9140625,38.4768325 7.1079426,39.6752202 7.49570279,40.6981431 C7.88346298,41.7210659 8.41081684,42.5797238 9.07776437,43.2741167 C9.7447119,43.9685096 10.5318651,44.4874376 11.4392239,44.8309007 C12.3465828,45.1743639 13.3198609,45.3460954 14.3590582,45.3460954 Z M26.829426,32.4214278 C27.4808631,32.4214278 28.0004617,32.2683627 28.3882219,31.9622326 C28.7759821,31.6561024 28.9698622,31.2641064 28.9698622,30.7862446 C28.9698622,30.323316 28.7759821,29.9275867 28.3882219,29.5990568 C28.0004617,29.2705268 27.4808631,29.1062618 26.829426,29.1062618 C26.1934992,29.1062618 25.6971662,29.2705268 25.3404268,29.5990568 C24.9836874,29.9275867 24.8053178,30.323316 24.8053178,30.7862446 C24.8053178,31.2641064 24.9836874,31.6561024 25.3404268,31.9622326 C25.6971662,32.2683627 26.1934992,32.4214278 26.829426,32.4214278 Z M32.6923601,45.0324987 L32.6923601,42.5685239 L28.3882219,42.5685239 L28.3882219,33.8326134 L21.2689448,33.8326134 L21.2689448,36.2965881 L25.3636924,36.2965881 L25.3636924,42.5685239 L21.2689448,42.5685239 L21.2689448,45.0324987 L32.6923601,45.0324987 Z M40.5096055,49.78125 C41.3316571,49.78125 42.0877895,49.6879176 42.7780027,49.5012529 C43.4682158,49.3145881 44.0653665,49.0233911 44.5694547,48.6276618 C45.073543,48.2319325 45.4690584,47.7354043 45.7560009,47.1380771 C46.0429435,46.5407499 46.1864147,45.8388904 46.1864147,45.0324987 L46.1864147,45.0324987 L46.1864147,34.2358093 C45.9382482,34.1462102 45.6280401,34.0603444 45.2557903,33.9782119 C44.8835405,33.8960794 44.4763923,33.8251468 44.0343457,33.7654141 C43.5922991,33.7056814 43.1231092,33.6571485 42.6267762,33.6198156 C42.1304431,33.5824826 41.6341101,33.5638161 41.137777,33.5638161 C40.1916422,33.5638161 39.3346922,33.6944815 38.566927,33.9558121 C37.7991618,34.2171428 37.1399695,34.6054055 36.58935,35.1206002 C36.0387305,35.6357949 35.6121943,36.2741884 35.3097414,37.0357806 C35.0072884,37.7973728 34.8560619,38.6709638 34.8560619,39.6565537 C34.8560619,40.5973441 34.9840228,41.418669 35.2399445,42.1205285 C35.4958663,42.822388 35.8564832,43.4010487 36.3217955,43.8565107 C36.7871077,44.3119727 37.3338496,44.6517026 37.9620211,44.8757003 C38.5901926,45.099698 39.2765281,45.2116968 40.0210277,45.2116968 C40.7345064,45.2116968 41.362678,45.125831 41.9055422,44.9540995 C42.4484065,44.7823679 42.8594323,44.5173039 43.1386196,44.1589076 L43.1386196,44.1589076 L43.2316821,44.1589076 L43.2316821,44.8757003 C43.2316821,45.682092 42.9757604,46.301819 42.4639169,46.7348812 C41.9520734,47.1679434 41.2075739,47.3844746 40.2304182,47.3844746 C39.4393874,47.3844746 38.7840727,47.276209 38.264474,47.0596779 C37.7448754,46.8431468 37.2989511,46.6154158 36.9267014,46.3764849 L36.9267014,46.3764849 L35.7634208,48.4372638 C35.9495457,48.5865956 36.1977122,48.7396607 36.5079204,48.8964591 C36.8181285,49.0532575 37.1787455,49.198856 37.5897713,49.3332546 C38.0007971,49.4676532 38.4505989,49.5759188 38.9391768,49.6580513 C39.4277546,49.7401838 39.9512309,49.78125 40.5096055,49.78125 Z M40.602668,42.8821207 C40.2459286,42.8821207 39.9124548,42.8111881 39.6022467,42.6693229 C39.2920385,42.5274576 39.0128512,42.3146598 38.7646847,42.0309294 C38.5165181,41.747199 38.3226381,41.3962692 38.1830444,40.9781402 C38.0434507,40.5600111 37.9736539,40.0821494 37.9736539,39.5445549 C37.9736539,38.9322945 38.0550835,38.4058999 38.2179428,37.9653711 C38.3808021,37.5248422 38.605703,37.1589793 38.8926455,36.8677823 C39.1795881,36.5765853 39.5130618,36.3637875 39.8930668,36.2293888 C40.2730718,36.0949902 40.68022,36.0277909 41.1145114,36.0277909 C41.4712508,36.0277909 41.8473782,36.053924 42.2428936,36.1061901 C42.638409,36.1584562 42.9447395,36.2293888 43.1618852,36.3189879 L43.1618852,36.3189879 L43.1618852,41.3589363 C42.9912708,41.8666644 42.6694298,42.2474605 42.1963624,42.5013246 C41.7232949,42.7551886 41.1920635,42.8821207 40.602668,42.8821207 Z M52.9101765,45.2116968 C53.8873322,45.2116968 54.6628525,45.0436985 55.2367376,44.707702 C55.8106227,44.3717054 56.2526693,43.9722428 56.5628775,43.5093143 L56.5628775,43.5093143 L56.6792055,43.5093143 L56.9816585,45.0324987 L60.84375,45.0324987 L60.84375,42.5685239 L59.3314853,42.5685239 C59.3159748,42.3743925 59.2927092,42.1727946 59.2616884,41.9637301 C59.2306676,41.5754674 59.2151572,41.2245377 59.2151572,40.9109409 C59.2151572,40.4928118 59.2423004,40.0149501 59.2965868,39.4773556 C59.3508733,38.9397611 59.3780165,38.2901677 59.3780165,37.5285755 C59.3780165,36.9312483 59.3004644,36.3936538 59.1453604,35.915792 C58.9902563,35.4379303 58.7382122,35.0272678 58.389228,34.6838047 C58.0402438,34.3403415 57.5826868,34.0752776 57.0165569,33.8886128 C56.450427,33.7019481 55.7640915,33.6086157 54.9575503,33.6086157 C53.8408009,33.6086157 52.8752781,33.7056814 52.0609817,33.8998127 C51.2466852,34.093944 50.5293289,34.3254083 49.9089126,34.5942056 L49.9089126,34.5942056 L50.6301465,36.8789822 C51.064438,36.6848508 51.599547,36.4907195 52.2354737,36.2965881 C52.8714005,36.1024568 53.5848792,36.0053911 54.37591,36.0053911 C55.0428575,36.0053911 55.5469458,36.1285899 55.8881747,36.3749873 C56.2294037,36.6213848 56.4000182,37.028314 56.4000182,37.5957748 L56.4000182,37.5957748 L56.4000182,38.0213705 C56.4000182,38.1707023 56.3845078,38.3200341 56.353487,38.4693659 C55.9036852,38.4394995 55.5236802,38.4096332 55.213472,38.3797668 C54.9032639,38.3499004 54.6085661,38.3349673 54.3293788,38.3349673 C53.538348,38.3349673 52.8209916,38.4058999 52.1773097,38.5477651 C51.5336278,38.6896303 50.9830083,38.9061614 50.5254513,39.1973584 C50.0678943,39.4885554 49.7189101,39.861885 49.4784988,40.317347 C49.2380875,40.772809 49.1178818,41.3141367 49.1178818,41.9413303 C49.1178818,42.9269202 49.4591108,43.7183788 50.1415687,44.315706 C50.8240266,44.9130332 51.7468959,45.2116968 52.9101765,45.2116968 Z M53.8873322,42.8149214 C53.2979367,42.8149214 52.8752781,42.6991892 52.6193563,42.4677249 C52.3634346,42.2362606 52.2354737,41.911464 52.2354737,41.4933349 C52.2354737,41.2394708 52.3052706,41.0229397 52.4448642,40.8437416 C52.5844579,40.6645434 52.7705828,40.5189449 53.0032389,40.406946 C53.235895,40.2949472 53.499572,40.2128147 53.7942697,40.1605486 C54.0889675,40.1082824 54.3836652,40.0821494 54.6783629,40.0821494 C55.0351023,40.0821494 55.3685761,40.1008158 55.6787842,40.1381488 C55.9889924,40.1754817 56.2216485,40.2090814 56.3767526,40.2389478 L56.3767526,40.2389478 L56.3767526,41.582934 C56.2061381,41.8815976 55.934706,42.1615947 55.5624562,42.4229254 C55.1902064,42.684256 54.6318317,42.8149214 53.8873322,42.8149214 Z" id="TezosGigaNode-Copy"></path>
                        </g>
                    </g>
                    <g id="Group-6" transform="translate(316.653077, 264.738844) rotate(9.000000) translate(-316.653077, -264.738844) translate(274.153077, 152.238844)">
                        <ellipse id="Oval" fill="#999999" cx="42.6729107" cy="182.669872" rx="9.67291066" ry="9.66987179"></ellipse>
                        <use id="Oval" stroke="#999999" mask="url(#mask-2)" stroke-width="2" stroke-dasharray="3,10" transform="translate(42.545382, 182.535983) rotate(-15.000000) translate(-42.545382, -182.535983) " xlink:href="#path-1"></use>
                        <line x1="36.4553314" y1="149.543269" x2="12.7994938" y2="0.0878446078" id="Path-5" stroke="#999999" stroke-dasharray="3,10"></line>
                        <ellipse id="Oval" fill="#6BA462" cx="27.5618801" cy="89.5092505" rx="5.52737752" ry="5.52564103"></ellipse>
                    </g>
                    <g id="Group-6" transform="translate(486.794689, 73.500000) rotate(-82.000000) translate(-486.794689, -73.500000) translate(443.794689, -40.000000)">
                        <ellipse id="Oval" fill="#999999" cx="42.8371758" cy="184.387821" rx="9.67291066" ry="9.66987179"></ellipse>
                        <use id="Oval" stroke="#999999" mask="url(#mask-4)" stroke-width="2" stroke-dasharray="3,10" transform="translate(42.837176, 184.387821) rotate(-15.000000) translate(-42.837176, -184.387821) " xlink:href="#path-3"></use>
                        <line x1="41.4553314" y1="150.543269" x2="20.509618" y2="0.640393409" id="Path-5" stroke="#999999" stroke-dasharray="3,10"></line>
                        <ellipse id="Oval" fill="#6BA462" cx="32.5618801" cy="90.5092505" rx="5.52737752" ry="5.52564103"></ellipse>
                    </g>
                    <g id="Group-6" transform="translate(115.000000, 73.987106) scale(-1, 1) rotate(-82.000000) translate(-115.000000, -73.987106) translate(72.000000, -36.012894)">
                        <ellipse id="Oval" fill="#999999" cx="42.8371758" cy="177.387821" rx="9.67291066" ry="9.66987179"></ellipse>
                        <use id="Oval" stroke="#999999" mask="url(#mask-6)" stroke-width="2" stroke-dasharray="3,10" transform="translate(42.837176, 177.387821) rotate(-15.000000) translate(-42.837176, -177.387821) " xlink:href="#path-5"></use>
                        <line x1="41.4553314" y1="143.543269" x2="21.407826" y2="0.0314750807" id="Path-5" stroke="#999999" stroke-dasharray="3,10"></line>
                        <ellipse id="Oval" fill="#6BA462" cx="32.5618801" cy="83.5092505" rx="5.52737752" ry="5.52564103"></ellipse>
                    </g>
                </g>
            </g>
        </g>
    </g>
</svg>