<?xml version="1.0" encoding="UTF-8"?>
<svg width="188px" height="307px" viewBox="0 0 188 307" version="1.1" xmlns="http://www.w3.org/2000/svg" xmlns:xlink="http://www.w3.org/1999/xlink">
    <!-- Generator: Sketch 63 (92445) - https://sketch.com -->
    <title>320@2x</title>
    <desc>Created with Sketch.</desc>
    <defs>
        <ellipse id="path-1" cx="21.3929235" cy="108.871494" rx="17.0406199" ry="17.0359835"></ellipse>
        <mask id="mask-2" maskContentUnits="userSpaceOnUse" maskUnits="objectBoundingBox" x="0" y="0" width="34.0812398" height="34.071967" fill="white">
            <use xlink:href="#path-1"></use>
        </mask>
        <ellipse id="path-3" cx="21.3929235" cy="108.871494" rx="17.0406199" ry="17.0359835"></ellipse>
        <mask id="mask-4" maskContentUnits="userSpaceOnUse" maskUnits="objectBoundingBox" x="0" y="0" width="34.0812398" height="34.071967" fill="white">
            <use xlink:href="#path-3"></use>
        </mask>
        <ellipse id="path-5" cx="21.3929235" cy="108.871494" rx="17.0406199" ry="17.0359835"></ellipse>
        <mask id="mask-6" maskContentUnits="userSpaceOnUse" maskUnits="objectBoundingBox" x="0" y="0" width="34.0812398" height="34.071967" fill="white">
            <use xlink:href="#path-5"></use>
        </mask>
    </defs>
    <g id="Page-1" stroke="none" stroke-width="1" fill="none" fill-rule="evenodd">
        <g id="IndexPage_iPhone_SE" transform="translate(-13.000000, -1237.000000)">
            <g id="320" transform="translate(10.000000, 1230.000000)">
                <g id="Group-3" transform="translate(3.000000, 122.000000)">
                    <circle id="Oval" stroke="#6BA462" stroke-width="2" cx="35" cy="35" r="34"></circle>
                    <g id="Group" transform="translate(19.000000, 18.000000)" fill="#333333" fill-rule="nonzero">
                        <path d="M4.88512642,7.47466216 L4.88512642,6.30007239 L3.67455781,6.30007239 L3.67455781,1.17458977 L4.69229248,1.17458977 L4.69229248,2.46663851 L5.8707221,2.46663851 L5.8707221,0 L0,0 L0,2.46663851 L1.17842962,2.46663851 L1.17842962,1.17458977 L2.20687728,1.17458977 L2.20687728,6.30007239 L0.98559568,6.30007239 L0.98559568,7.47466216 L4.88512642,7.47466216 Z M9.59884489,7.62415541 C9.8630988,7.62415541 10.1130687,7.60279923 10.3487546,7.56008687 C10.5844406,7.51737452 10.800486,7.46042471 10.9968909,7.38923745 C11.1932959,7.31805019 11.3647038,7.24152389 11.5111148,7.15965854 C11.6575257,7.07779319 11.7771542,6.99414817 11.8700002,6.90872346 L11.8700002,6.90872346 L11.4093413,6.00108591 C11.2379334,6.14346042 11.0147459,6.26447876 10.739779,6.36414093 C10.4648121,6.46380309 10.1130687,6.51363417 9.68454886,6.51363417 C9.47028893,6.51363417 9.26852749,6.49049831 9.07926456,6.44422659 C8.89000162,6.39795487 8.72216467,6.32498793 8.57575372,6.22532577 C8.42934277,6.12566361 8.3114998,5.99752654 8.22222483,5.84091458 C8.13294986,5.68430261 8.08474138,5.49209701 8.07759938,5.26429778 L8.07759938,5.26429778 L11.9342781,5.26429778 C12.0056981,4.90836149 12.0414081,4.57734073 12.0414081,4.27123552 C12.0414081,3.82275579 11.9646316,3.45258205 11.8110787,3.16071429 C11.6575257,2.86884653 11.4593353,2.63570825 11.2165074,2.46129947 C10.9736794,2.28689069 10.70764,2.16409266 10.4183891,2.09290541 C10.1291382,2.02171815 9.84881481,1.98612452 9.57741889,1.98612452 C9.17032503,1.98612452 8.79179915,2.04485401 8.44184126,2.16231298 C8.09188338,2.27977196 7.78656298,2.45596042 7.52588006,2.69087838 C7.26519714,2.92579633 7.05986471,3.21944377 6.90988276,3.5718207 C6.75990081,3.92419764 6.68490983,4.33530405 6.68490983,4.80513996 C6.68490983,5.24650097 6.75097331,5.63981057 6.88310027,5.98506877 C7.01522723,6.33032698 7.20627566,6.6257541 7.45624558,6.87135014 C7.7062155,7.11694619 8.0115359,7.30381274 8.37220679,7.43194981 C8.73287767,7.56008687 9.14175704,7.62415541 9.59884489,7.62415541 Z M10.7451355,4.22852317 L8.10973837,4.22852317 C8.12402237,4.05055502 8.17401635,3.89038369 8.25972032,3.74800917 C8.34542429,3.60563465 8.45433976,3.48639599 8.58646672,3.39029319 C8.71859367,3.2941904 8.86679012,3.22122346 9.03105607,3.17139237 C9.19532202,3.12156129 9.37030096,3.09664575 9.5559929,3.09664575 C9.95594477,3.09664575 10.2541232,3.1980876 10.4505281,3.40097128 C10.646933,3.60385497 10.7451355,3.8797056 10.7451355,4.22852317 L10.7451355,4.22852317 Z M18.3192241,7.47466216 L18.3192241,6.30007239 L15.0517601,6.30007239 L18.3192241,3.31020753 L18.3192241,2.13561776 L13.2626897,2.13561776 L13.2626897,3.31020753 L16.5622926,3.31020753 L13.2626897,6.30007239 L13.2626897,7.47466216 L18.3192241,7.47466216 Z M22.2187548,7.62415541 C22.6472747,7.62415541 23.034728,7.56186655 23.3811149,7.43728885 C23.7275018,7.31271115 24.0256802,7.12940396 24.2756501,6.88736728 C24.52562,6.6453306 24.718454,6.34990347 24.8541519,6.00108591 C24.9898499,5.65226834 25.0576989,5.25361969 25.0576989,4.80513996 C25.0576989,4.38513514 24.9952064,4.00072394 24.8702214,3.65190637 C24.7452365,3.3030888 24.56133,3.005882 24.3185021,2.76028596 C24.0756742,2.51468991 23.7774958,2.324264 23.4239669,2.1890082 C23.070438,2.05375241 22.6687006,1.98612452 22.2187548,1.98612452 C21.7902349,1.98612452 21.4027816,2.04841337 21.0563947,2.17299107 C20.7100078,2.29756877 20.4118294,2.48087597 20.1618595,2.72291264 C19.9118895,2.96494932 19.7190556,3.26037645 19.5833577,3.60919402 C19.4476597,3.95801158 19.3798107,4.35666023 19.3798107,4.80513996 C19.3798107,5.22514479 19.4423032,5.60955598 19.5672882,5.95837355 C19.6922731,6.30719112 19.8761796,6.60439792 20.1190075,6.84999397 C20.3618354,7.09559001 20.6600138,7.28601593 21.0135427,7.42127172 C21.3670716,7.55652751 21.7688089,7.62415541 22.2187548,7.62415541 Z M22.2187548,6.44956564 C21.9973529,6.44956564 21.8009479,6.40863296 21.62954,6.32676762 C21.458132,6.24490227 21.3117211,6.12922297 21.1903071,5.97972973 C21.0688932,5.83023649 20.9760472,5.6558277 20.9117692,5.45650338 C20.8474912,5.25717905 20.8153523,5.04005792 20.8153523,4.80513996 C20.8153523,4.5132722 20.8510622,4.2641168 20.9224822,4.05767375 C20.9939022,3.85123069 21.0921047,3.68038127 21.2170896,3.54512548 C21.3420746,3.40986969 21.490271,3.31198721 21.661679,3.25147804 C21.8330869,3.19096887 22.0187789,3.16071429 22.2187548,3.16071429 C22.6687006,3.16071429 23.0150875,3.31198721 23.2579155,3.61453306 C23.5007434,3.91707891 23.6221573,4.31394788 23.6221573,4.80513996 C23.6221573,5.37463803 23.4918159,5.79108349 23.231133,6.05447635 C22.9704501,6.31786921 22.6329907,6.44956564 22.2187548,6.44956564 Z M28.7751087,7.62415541 C29.5535864,7.62415541 30.1410157,7.46932312 30.5373966,7.15965854 C30.9337775,6.84999397 31.1319679,6.4246501 31.1319679,5.88362693 C31.1319679,5.57040299 31.0444784,5.31412886 30.8694995,5.11480454 C30.6945205,4.91548021 30.4784751,4.7535292 30.2213632,4.6289515 C29.9642513,4.50437379 29.6821424,4.40293195 29.3750365,4.32462597 C29.0679306,4.24631998 28.7858217,4.17335304 28.5287097,4.10572514 C28.2715978,4.03809725 28.0555524,3.96513031 27.8805735,3.88682432 C27.7055945,3.80851834 27.618105,3.70529681 27.618105,3.57715975 C27.618105,3.41342905 27.710951,3.29241071 27.896643,3.21410473 C28.0823349,3.13579875 28.3251628,3.09664575 28.6251267,3.09664575 C28.7893927,3.09664575 28.9554441,3.11444257 29.1232811,3.1500362 C29.291118,3.18562983 29.451813,3.23190154 29.6053659,3.28885135 C29.7589189,3.34580116 29.9053298,3.40809001 30.0445988,3.47571791 C30.1838677,3.5433458 30.3070672,3.60919402 30.4141971,3.67326255 L30.4141971,3.67326255 L31.0034119,2.72291264 C30.903424,2.65172539 30.7837955,2.57163972 30.6445266,2.48265565 C30.5052576,2.39367157 30.3374207,2.31358591 30.1410157,2.24239865 C29.9446108,2.17121139 29.7142814,2.11070222 29.4500275,2.06087114 C29.1857735,2.01104006 28.8786676,1.98612452 28.5287097,1.98612452 C28.2001779,1.98612452 27.8948575,2.02171815 27.6127485,2.09290541 C27.3306396,2.16409266 27.0878117,2.26909387 26.8842648,2.40790903 C26.6807178,2.54672418 26.5200229,2.71579392 26.4021799,2.91511824 C26.284337,3.11444257 26.2254155,3.34580116 26.2254155,3.60919402 C26.2254155,3.92953668 26.312905,4.19114986 26.4878839,4.39403354 C26.6628629,4.59691723 26.8789083,4.76420729 27.1360202,4.89590372 C27.3931321,5.02760014 27.675241,5.13082167 27.9823469,5.20556829 C28.2894528,5.28031491 28.5715617,5.35328185 28.8286737,5.42446911 C29.0857856,5.49565637 29.301831,5.57396236 29.4768099,5.65938707 C29.6517889,5.74481178 29.7392784,5.85871139 29.7392784,6.00108591 C29.7392784,6.18617278 29.6571454,6.31786921 29.4928794,6.39617519 C29.3286135,6.47448118 29.1322086,6.51363417 28.9036646,6.51363417 C28.6894047,6.51363417 28.4733593,6.48693895 28.2555283,6.4335485 C28.0376974,6.38015806 27.832365,6.31430985 27.639531,6.23600386 C27.4466971,6.15769788 27.2735037,6.07049348 27.1199507,5.97439069 C26.9663978,5.87828789 26.8431983,5.79108349 26.7503523,5.71277751 L26.7503523,5.71277751 L26.1075725,6.71651786 C26.3789684,6.95855454 26.7378538,7.17033663 27.1842287,7.35186414 C27.6306035,7.53339165 28.1608969,7.62415541 28.7751087,7.62415541 Z" id="TezosGigaNode"></path>
                        <path d="M4.54491391,33.5238598 L4.54491391,29.9894124 L4.48176703,29.103131 L4.53438943,29.103131 L7.04974033,33.5238598 L8.31267801,33.5238598 L8.31267801,26.0491976 L6.94449552,26.0491976 L6.94449552,29.7224602 L7.03921585,30.6194196 L6.98659344,30.6194196 L4.43966911,26.0491976 L3.17673142,26.0491976 L3.17673142,33.5238598 L4.54491391,33.5238598 Z M12.0593932,33.673353 C12.4803724,33.673353 12.8610078,33.6110642 13.2012993,33.4864865 C13.5415909,33.3619088 13.8345222,33.1786016 14.0800935,32.9365649 C14.3256647,32.6945282 14.5151053,32.3991011 14.6484154,32.0502835 C14.7817255,31.701466 14.8483805,31.3028173 14.8483805,30.8543376 C14.8483805,30.4343328 14.7869877,30.0499216 14.6642021,29.701104 C14.5414165,29.3522864 14.3607463,29.0550796 14.1221914,28.8094836 C13.8836365,28.5638875 13.5907051,28.3734616 13.2433972,28.2382058 C12.8960894,28.10295 12.5014213,28.0353222 12.0593932,28.0353222 C11.6384139,28.0353222 11.2577785,28.097611 10.917487,28.2221887 C10.5771954,28.3467664 10.2842641,28.5300736 10.0386929,28.7721103 C9.79312163,29.014147 9.60368098,29.3095741 9.47037089,29.6583917 C9.3370608,30.0072092 9.27040576,30.4058579 9.27040576,30.8543376 C9.27040576,31.2743424 9.33179856,31.6587536 9.45458417,32.0075712 C9.57736978,32.3563888 9.75804003,32.6535956 9.99659493,32.8991916 C10.2351498,33.1447876 10.5280812,33.3352136 10.8753891,33.4704694 C11.2226969,33.6057251 11.617365,33.673353 12.0593932,33.673353 Z M12.0593932,32.4987633 C11.8418872,32.4987633 11.6489384,32.4578306 11.4805467,32.3759653 C11.312155,32.2940999 11.1683204,32.1784206 11.049043,32.0289274 C10.9297656,31.8794341 10.8385534,31.7050253 10.7754065,31.505701 C10.7122596,31.3063767 10.6806862,31.0892556 10.6806862,30.8543376 C10.6806862,30.5624698 10.7157678,30.3133144 10.785931,30.1068714 C10.8560942,29.9004283 10.9525686,29.7295789 11.0753542,29.5943231 C11.1981398,29.4590673 11.3437285,29.3611848 11.5121202,29.3006757 C11.6805118,29.2401665 11.8629362,29.2099119 12.0593932,29.2099119 C12.5014213,29.2099119 12.8417129,29.3611848 13.0802678,29.6637307 C13.3188227,29.9662765 13.4381001,30.3631455 13.4381001,30.8543376 C13.4381001,31.4238357 13.3100523,31.8402811 13.0539566,32.103674 C12.7978609,32.3670668 12.4663397,32.4987633 12.0593932,32.4987633 Z M17.8373331,33.673353 C18.0127411,33.673353 18.1881491,33.6537765 18.3635571,33.6146236 C18.5389651,33.5754706 18.7003405,33.5185208 18.8476832,33.4437741 C18.9950259,33.3690275 19.128336,33.2818231 19.2476135,33.182161 C19.3668909,33.0824988 19.4616113,32.9685992 19.5317745,32.8404621 L19.5317745,32.8404621 L19.5738724,32.8404621 L19.7106906,33.5238598 L21.405132,33.5238598 L21.405132,32.34927 L20.7315653,32.34927 C20.7245489,32.3136764 20.7210408,32.2780828 20.7210408,32.2424891 C20.6649102,31.7228222 20.6368449,31.1960364 20.6368449,30.662132 L20.6368449,30.662132 L20.6368449,26.0491976 L18.4372285,26.0491976 L18.4372285,27.2237874 L19.2686624,27.2237874 L19.2686624,28.2168497 C19.128336,28.1598999 18.9616984,28.1189672 18.7687496,28.0940516 C18.5758008,28.0691361 18.3705734,28.0566783 18.1530675,28.0566783 C17.7601535,28.0566783 17.398813,28.1225265 17.069046,28.254223 C16.7392789,28.3859194 16.4533639,28.5745656 16.2113008,28.8201617 C15.9692377,29.0657577 15.7797971,29.3665239 15.6429788,29.7224602 C15.5061606,30.0783965 15.4377515,30.4841639 15.4377515,30.9397623 C15.4377515,31.4095982 15.5008983,31.8171453 15.6271921,32.1624035 C15.7534859,32.5076617 15.9253857,32.7924107 16.1428917,33.0166506 C16.3603976,33.2408904 16.6147392,33.4064008 16.9059165,33.5131817 C17.1970938,33.6199626 17.507566,33.673353 17.8373331,33.673353 Z M18.1530675,32.4987633 C17.7320883,32.4987633 17.4093375,32.3599481 17.1848153,32.0823178 C16.960293,31.8046875 16.8480319,31.4380731 16.8480319,30.9824747 C16.8480319,30.662132 16.8883757,30.3916204 16.9690634,30.1709399 C17.0497511,29.9502594 17.1585041,29.7705116 17.2953223,29.6316964 C17.4321406,29.4928813 17.5900078,29.3914394 17.7689239,29.3273709 C17.9478401,29.2633024 18.1320185,29.2312681 18.3214592,29.2312681 C18.5108998,29.2312681 18.6915701,29.2508446 18.8634699,29.2899976 C19.0353698,29.3291506 19.170434,29.3878801 19.2686624,29.4661861 L19.2686624,29.4661861 L19.2686624,31.7299409 C19.2055156,31.9790963 19.0704514,32.1695222 18.8634699,32.3012186 C18.6564885,32.4329151 18.4196877,32.4987633 18.1530675,32.4987633 Z M24.9203086,33.673353 C25.1799125,33.673353 25.4254837,33.6519969 25.6570222,33.6092845 C25.8885608,33.5665722 26.1008045,33.5096223 26.2937533,33.4384351 C26.4867021,33.3672478 26.6550938,33.2907215 26.7989284,33.2088562 C26.942763,33.1269908 27.0602863,33.0433458 27.1514985,32.9579211 L27.1514985,32.9579211 L26.6989458,32.0502835 C26.5305541,32.1926581 26.3112941,32.3136764 26.0411658,32.4133386 C25.7710375,32.5130007 25.4254837,32.5628318 25.0045044,32.5628318 C24.7940148,32.5628318 24.5958038,32.5396959 24.4098713,32.4934242 C24.2239388,32.4471525 24.0590553,32.3741856 23.9152207,32.2745234 C23.7713861,32.1748612 23.6556168,32.0467242 23.5679128,31.8901122 C23.4802088,31.7335002 23.4328487,31.5412946 23.4258323,31.3134954 L23.4258323,31.3134954 L27.2146454,31.3134954 C27.2848086,30.9575591 27.3198902,30.6265384 27.3198902,30.3204332 C27.3198902,29.8719534 27.2444648,29.5017797 27.0936139,29.2099119 C26.942763,28.9180442 26.7480601,28.6849059 26.5095052,28.5104971 C26.2709503,28.3360883 26.0095924,28.2132903 25.7254314,28.142103 C25.4412704,28.0709158 25.1658798,28.0353222 24.8992596,28.0353222 C24.4993294,28.0353222 24.1274644,28.0940516 23.7836647,28.2115106 C23.439865,28.3289696 23.1399173,28.5051581 22.8838216,28.740076 C22.6277259,28.974994 22.4260067,29.2686414 22.2786639,29.6210183 C22.1313212,29.9733953 22.0576498,30.3845017 22.0576498,30.8543376 C22.0576498,31.2956986 22.1225508,31.6890082 22.2523527,32.0342664 C22.3821547,32.3795246 22.5698412,32.6749517 22.8154125,32.9205478 C23.0609837,33.1661438 23.3609314,33.3530104 23.7152556,33.4811474 C24.0695797,33.6092845 24.4712641,33.673353 24.9203086,33.673353 Z M26.046428,30.2777208 L23.4574058,30.2777208 C23.4714384,30.0997527 23.5205527,29.9395813 23.6047485,29.7972068 C23.6889444,29.6548323 23.7959432,29.5355936 23.9257452,29.4394908 C24.0555471,29.343388 24.2011357,29.2704211 24.3625111,29.22059 C24.5238865,29.1707589 24.6957863,29.1458434 24.8782107,29.1458434 C25.2711246,29.1458434 25.564056,29.2472852 25.7570048,29.4501689 C25.9499536,29.6530526 26.046428,29.9289032 26.046428,30.2777208 L26.046428,30.2777208 Z" id="TezosGigaNode-Copy-2"></path>
                        <path d="M6.59740511,20.8346925 C7.00361011,20.8346925 7.40090711,20.779803 7.7892961,20.6700239 C8.17768509,20.5602449 8.49302845,20.3990069 8.73532617,20.18631 L8.73532617,20.18631 L8.73532617,16.9341054 L6.18051051,16.9341054 L6.18051051,17.9632841 L7.53809038,17.9632841 L7.53809038,19.3938424 C7.48107915,19.4350095 7.3759647,19.4761767 7.22274702,19.5173438 C7.06952935,19.558511 6.90027726,19.5790946 6.71499077,19.5790946 C6.42993463,19.5790946 6.1644761,19.524205 5.91861518,19.414426 C5.67275425,19.3046469 5.46074375,19.1434089 5.28258366,18.930712 C5.10442357,18.7180151 4.9654587,18.4572898 4.86568906,18.1485362 C4.76591941,17.8397826 4.71603458,17.4898619 4.71603458,17.098774 C4.71603458,16.6596578 4.76591941,16.2822923 4.86568906,15.9666775 C4.9654587,15.6510627 5.10620517,15.3920528 5.28792846,15.1896476 C5.46965175,14.9872425 5.68522546,14.8380116 5.93464958,14.7419549 C6.18407371,14.6458982 6.45487704,14.5978699 6.74705959,14.5978699 C6.91809327,14.5978699 7.07487415,14.6115923 7.21740222,14.6390371 L7.21740222,14.6390371 L7.3884359,14.6802042 L7.3884359,15.8225925 L8.56429249,15.8225925 L8.56429249,13.6921927 C8.32912117,13.5892748 8.06900744,13.5052252 7.7839513,13.4400439 C7.49889516,13.3748626 7.14257498,13.342272 6.71499077,13.342272 C6.30165937,13.342272 5.88476476,13.4108839 5.46430695,13.5481077 C5.04384914,13.6853315 4.66436816,13.9031743 4.32586399,14.2016361 C3.98735982,14.5000979 3.71121168,14.8826093 3.49741958,15.3491703 C3.28362747,15.8157313 3.17673142,16.3817796 3.17673142,17.0473151 C3.17673142,17.6785447 3.26581146,18.2291552 3.44397155,18.6991468 C3.62213164,19.1691384 3.86442936,19.5636569 4.17086471,19.8827023 C4.47730006,20.2017476 4.83896504,20.440174 5.25585965,20.5979814 C5.67275425,20.7557888 6.11993608,20.8346925 6.59740511,20.8346925 Z M12.3270335,14.8963317 C12.6263425,14.8963317 12.865077,14.8260045 13.0432371,14.6853501 C13.2213972,14.5446957 13.3104772,14.3645894 13.3104772,14.1450313 C13.3104772,13.9323344 13.2213972,13.7505128 13.0432371,13.5995666 C12.865077,13.4486204 12.6263425,13.3731473 12.3270335,13.3731473 C12.034851,13.3731473 11.8068061,13.4486204 11.6428988,13.5995666 C11.4789915,13.7505128 11.3970379,13.9323344 11.3970379,14.1450313 C11.3970379,14.3645894 11.4789915,14.5446957 11.6428988,14.6853501 C11.8068061,14.8260045 12.034851,14.8963317 12.3270335,14.8963317 Z M15.0208141,20.6906075 L15.0208141,19.558511 L13.0432371,19.558511 L13.0432371,15.5447143 L9.77221788,15.5447143 L9.77221788,16.6768108 L11.6535884,16.6768108 L11.6535884,19.558511 L9.77221788,19.558511 L9.77221788,20.6906075 L15.0208141,20.6906075 Z M18.6125215,22.8724662 C18.9902208,22.8724662 19.337633,22.8295838 19.654758,22.7438189 C19.9718829,22.658054 20.2462495,22.5242608 20.4778576,22.3424392 C20.7094657,22.1606177 20.891189,21.9324831 21.0230275,21.6580354 C21.1548659,21.3835878 21.2207852,21.0611118 21.2207852,20.6906075 L21.2207852,20.6906075 L21.2207852,15.7299664 C21.1067627,15.6887993 20.9642346,15.6493474 20.7932009,15.6116109 C20.6221673,15.5738743 20.4350992,15.5412837 20.2319967,15.5138389 C20.0288942,15.4863941 19.8133205,15.4640953 19.5852755,15.4469423 C19.3572306,15.4297893 19.1291857,15.4212128 18.9011408,15.4212128 C18.4664302,15.4212128 18.0726964,15.4812482 17.7199394,15.6013191 C17.3671824,15.7213899 17.0643103,15.8997809 16.811323,16.136492 C16.5583356,16.3732031 16.3623595,16.666519 16.2233947,17.0164397 C16.0844298,17.3663605 16.0149474,17.7677401 16.0149474,18.2205787 C16.0149474,18.6528338 16.0737402,19.0301993 16.1913259,19.3526752 C16.3089115,19.6751512 16.4746004,19.9410224 16.6883925,20.1502887 C16.9021846,20.359555 17.1533903,20.5156471 17.4420097,20.618565 C17.730629,20.7214828 18.0459724,20.7729418 18.3880397,20.7729418 C18.7158543,20.7729418 19.0044737,20.7334899 19.2538978,20.6545862 C19.5033219,20.5756825 19.6921716,20.4538964 19.8204469,20.2892278 L19.8204469,20.2892278 L19.8632053,20.2892278 L19.8632053,20.618565 C19.8632053,20.9890693 19.7456196,21.2738087 19.5104483,21.4727833 C19.275277,21.6717578 18.9332096,21.7712451 18.4842462,21.7712451 C18.1207996,21.7712451 17.8197091,21.7215014 17.5809746,21.6220142 C17.34224,21.5225269 17.1373559,21.4178937 16.9663222,21.3081147 L16.9663222,21.3081147 L16.431842,22.254959 C16.5173588,22.3235709 16.6313813,22.3938981 16.7739094,22.4659407 C16.9164374,22.5379832 17.0821263,22.6048798 17.270976,22.6666305 C17.4598257,22.7283812 17.6664914,22.7781248 17.8909731,22.8158614 C18.1154548,22.8535979 18.3559709,22.8724662 18.6125215,22.8724662 Z M18.6552799,19.702596 C18.4913726,19.702596 18.3381549,19.6700053 18.1956269,19.604824 C18.0530988,19.5396427 17.9248235,19.4418707 17.8108011,19.3115081 C17.6967786,19.1811455 17.6076986,19.0199075 17.5435609,18.8277941 C17.4794233,18.6356808 17.4473545,18.4161227 17.4473545,18.1691198 C17.4473545,17.887811 17.4847681,17.645954 17.5595953,17.4435489 C17.6344226,17.2411437 17.7377554,17.0730445 17.8695939,16.9392513 C18.0014324,16.8054581 18.15465,16.7076861 18.3292469,16.6459354 C18.5038438,16.5841847 18.6909119,16.5533093 18.8904512,16.5533093 C19.0543585,16.5533093 19.2271738,16.5653164 19.4088971,16.5893306 C19.5906203,16.6133448 19.7313668,16.6459354 19.8311365,16.6871026 L19.8311365,16.6871026 L19.8311365,19.0027545 C19.752746,19.236035 19.6048732,19.4109954 19.3875178,19.5276356 C19.1701625,19.6442759 18.9260832,19.702596 18.6552799,19.702596 Z M24.3100811,20.7729418 C24.7590445,20.7729418 25.1153647,20.6957534 25.3790416,20.5413766 C25.6427185,20.3869998 25.845821,20.2034629 25.9883491,19.990766 L25.9883491,19.990766 L26.0417971,19.990766 L26.180762,20.6906075 L27.9552365,20.6906075 L27.9552365,19.558511 L27.2604121,19.558511 C27.2532857,19.4693155 27.2425961,19.3766894 27.2283433,19.2806327 C27.2140905,19.1022418 27.2069641,18.9410038 27.2069641,18.7969188 C27.2069641,18.6048054 27.2194353,18.3852473 27.2443777,18.1382444 C27.2693201,17.8912416 27.2817914,17.5927798 27.2817914,17.242859 C27.2817914,16.9684114 27.2461593,16.7214085 27.1748953,16.5018504 C27.1036313,16.2822923 26.9878272,16.0936095 26.8274831,15.9358021 C26.667139,15.7779948 26.4569101,15.6562086 26.1967964,15.5704437 C25.9366827,15.4846788 25.6213393,15.4417964 25.2507663,15.4417964 C24.7376653,15.4417964 24.2940467,15.4863941 23.9199105,15.5755896 C23.5457743,15.6647851 23.2161781,15.7711336 22.931122,15.894635 L22.931122,15.894635 L23.2624998,16.9443972 C23.4620391,16.8552017 23.7079,16.7660063 24.0000825,16.6768108 C24.2922651,16.5876153 24.6200796,16.5430175 24.9835262,16.5430175 C25.2899616,16.5430175 25.5215697,16.5996224 25.6783506,16.712832 C25.8351314,16.8260417 25.9135219,17.0130091 25.9135219,17.2737344 L25.9135219,17.2737344 L25.9135219,17.4692783 C25.9135219,17.5378902 25.9063955,17.6065021 25.8921427,17.6751141 C25.685477,17.6613917 25.5108801,17.6476693 25.368352,17.6339469 C25.2258239,17.6202245 25.0904223,17.6133633 24.962147,17.6133633 C24.5987004,17.6133633 24.2691043,17.645954 23.9733585,17.7111353 C23.6776128,17.7763166 23.4246254,17.8758039 23.2143965,18.0095971 C23.0041676,18.1433903 22.8438236,18.3149201 22.7333643,18.5241864 C22.622905,18.7334528 22.5676754,18.9821709 22.5676754,19.270341 C22.5676754,19.7231796 22.7244563,20.0868227 23.0380181,20.3612703 C23.3515798,20.635718 23.7756008,20.7729418 24.3100811,20.7729418 Z M24.7590445,19.6717206 C24.4882412,19.6717206 24.2940467,19.6185464 24.176461,19.5121979 C24.0588754,19.4058495 24.0000825,19.2566186 24.0000825,19.0645052 C24.0000825,18.947865 24.0321513,18.8483777 24.096289,18.7660434 C24.1604266,18.6837091 24.2459435,18.6168125 24.3528395,18.5653536 C24.4597356,18.5138947 24.5808844,18.4761581 24.7162861,18.4521439 C24.8516877,18.4281298 24.9870894,18.4161227 25.1224911,18.4161227 C25.2863984,18.4161227 25.439616,18.4246992 25.5821441,18.4418521 C25.7246722,18.4590051 25.8315682,18.4744428 25.9028323,18.4881652 L25.9028323,18.4881652 L25.9028323,19.1056724 C25.8244418,19.2428962 25.6997298,19.3715435 25.5286961,19.4916144 C25.3576624,19.6116852 25.1011119,19.6717206 24.7590445,19.6717206 Z" id="TezosGigaNode-Copy"></path>
                    </g>
                </g>
                <g id="Group-6" transform="translate(130.500000, 155.000000) rotate(-82.000000) translate(-130.500000, -155.000000) translate(109.000000, 90.000000)">
                    <ellipse id="Oval" fill="#999999" cx="21.2802497" cy="108.557373" rx="3.6710253" ry="3.669872"></ellipse>
                    <use id="Oval" stroke="#999999" mask="url(#mask-2)" stroke-width="2" stroke-dasharray="3,10" transform="translate(21.392923, 108.871494) rotate(-15.000000) translate(-21.392923, -108.871494) " xlink:href="#path-1"></use>
                    <line x1="18.3472716" y1="91.3899473" x2="5.40370344" y2="1.55459244" id="Path-5" stroke="#999999" stroke-dasharray="3,10"></line>
                    <ellipse id="Oval" fill="#6BA462" cx="9.57290105" cy="30.0678503" rx="3.52674897" ry="3.525641"></ellipse>
                </g>
                <g id="Group-6" transform="translate(44.500000, 253.000000) rotate(9.000000) translate(-44.500000, -253.000000) translate(23.000000, 188.000000)">
                    <ellipse id="Oval" fill="#999999" cx="21.2802497" cy="108.557373" rx="3.6710253" ry="3.669872"></ellipse>
                    <use id="Oval" stroke="#999999" mask="url(#mask-4)" stroke-width="2" stroke-dasharray="3,10" transform="translate(21.392923, 108.871494) rotate(-15.000000) translate(-21.392923, -108.871494) " xlink:href="#path-3"></use>
                    <line x1="18.3472716" y1="91.3899473" x2="5.40370344" y2="1.55459244" id="Path-5" stroke="#999999" stroke-dasharray="3,10"></line>
                    <ellipse id="Oval" fill="#6BA462" cx="11.2429783" cy="41.9510672" rx="3.52674897" ry="3.525641"></ellipse>
                </g>
                <g id="Group-6" transform="translate(31.500000, 68.000000) rotate(189.000000) translate(-31.500000, -68.000000) translate(10.000000, 3.000000)">
                    <ellipse id="Oval" fill="#999999" cx="21.2802497" cy="108.557373" rx="3.6710253" ry="3.669872"></ellipse>
                    <use id="Oval" stroke="#999999" mask="url(#mask-6)" stroke-width="2" stroke-dasharray="3,10" transform="translate(21.392923, 108.871494) rotate(-15.000000) translate(-21.392923, -108.871494) " xlink:href="#path-5"></use>
                    <line x1="18.3472716" y1="91.3899473" x2="5.40370344" y2="1.55459244" id="Path-5" stroke="#999999" stroke-dasharray="3,10"></line>
                    <ellipse id="Oval" fill="#6BA462" cx="11.2429783" cy="41.9510672" rx="3.52674897" ry="3.525641"></ellipse>
                </g>
            </g>
        </g>
    </g>
</svg>