<?xml version="1.0" encoding="UTF-8"?>
<svg width="333px" height="219px" viewBox="0 0 333 219" version="1.1" xmlns="http://www.w3.org/2000/svg" xmlns:xlink="http://www.w3.org/1999/xlink">
    <!-- Generator: Sketch 63 (92445) - https://sketch.com -->
    <title>768@2x</title>
    <desc>Created with Sketch.</desc>
    <defs>
        <ellipse id="path-1" cx="21.3929235" cy="108.871494" rx="17.0406199" ry="17.0359835"></ellipse>
        <mask id="mask-2" maskContentUnits="userSpaceOnUse" maskUnits="objectBoundingBox" x="0" y="0" width="34.0812398" height="34.071967" fill="white">
            <use xlink:href="#path-1"></use>
        </mask>
        <ellipse id="path-3" cx="21.3929235" cy="108.871494" rx="17.0406199" ry="17.0359835"></ellipse>
        <mask id="mask-4" maskContentUnits="userSpaceOnUse" maskUnits="objectBoundingBox" x="0" y="0" width="34.0812398" height="34.071967" fill="white">
            <use xlink:href="#path-3"></use>
        </mask>
        <ellipse id="path-5" cx="21.3929235" cy="108.871494" rx="17.0406199" ry="17.0359835"></ellipse>
        <mask id="mask-6" maskContentUnits="userSpaceOnUse" maskUnits="objectBoundingBox" x="0" y="0" width="34.0812398" height="34.071967" fill="white">
            <use xlink:href="#path-5"></use>
        </mask>
    </defs>
    <g id="Page-1" stroke="none" stroke-width="1" fill="none" fill-rule="evenodd">
        <g id="IndexPage_768" transform="translate(-218.000000, -1272.000000)">
            <g id="768" transform="translate(210.000000, 1272.000000)">
                <g id="Group-3" transform="translate(124.403369, 0.564486)">
                    <circle id="Oval" stroke="#6BA462" stroke-width="4" cx="50" cy="50" r="48"></circle>
                    <g id="Group" transform="translate(30.000000, 28.000000)" fill="#333333" fill-rule="nonzero">
                        <path d="M6.3219283,9.67309221 L6.3219283,8.15303486 L4.75531011,8.15303486 L4.75531011,1.52005735 L6.0723785,1.52005735 L6.0723785,3.19212043 L7.59740507,3.19212043 L7.59740507,0 L0,0 L0,3.19212043 L1.52502656,3.19212043 L1.52502656,1.52005735 L2.85595884,1.52005735 L2.85595884,8.15303486 L1.27547676,8.15303486 L1.27547676,9.67309221 L6.3219283,9.67309221 Z M12.4220346,9.86655405 C12.7640102,9.86655405 13.0875007,9.83891665 13.392506,9.78364184 C13.6975113,9.72836702 13.9770995,9.65466727 14.2312706,9.56254258 C14.4854417,9.4704179 14.7072638,9.37138386 14.8967368,9.26544047 C15.0862098,9.15949708 15.2410231,9.05125057 15.3611767,8.94070094 L15.3611767,8.94070094 L14.7650299,7.76611117 C14.5432079,7.95036055 14.2543771,8.10697252 13.8985376,8.23594708 C13.542698,8.36492164 13.0875007,8.42940893 12.5329456,8.42940893 C12.255668,8.42940893 11.994565,8.3994684 11.7496365,8.33958736 C11.504708,8.27970631 11.2875072,8.1852785 11.0980342,8.05630394 C10.9085612,7.92732938 10.7560586,7.76150494 10.6405263,7.55883063 C10.5249939,7.35615631 10.4626065,7.10741966 10.4533639,6.81262066 L10.4533639,6.81262066 L15.4443599,6.81262066 C15.5367858,6.35199722 15.5829987,5.92361742 15.5829987,5.52748126 C15.5829987,4.94709573 15.4836409,4.46804735 15.2849253,4.09033613 C15.0862098,3.71262491 14.829728,3.41091656 14.5154801,3.18521108 C14.2012322,2.95950559 13.8569459,2.80059051 13.4826212,2.70846582 C13.1082965,2.61634113 12.745525,2.57027879 12.3943068,2.57027879 C11.8674794,2.57027879 11.3776224,2.64628165 10.9247358,2.79828739 C10.4718491,2.95029312 10.0767286,3.17830173 9.73937419,3.4823132 C9.40201983,3.78632467 9.13629551,4.166339 8.94220122,4.62235621 C8.74810693,5.07837341 8.65105978,5.61039348 8.65105978,6.21841642 C8.65105978,6.78958948 8.7365537,7.29857838 8.90754152,7.74538312 C9.07852935,8.19218785 9.32576851,8.57450531 9.64925899,8.89233548 C9.97274947,9.21016565 10.36787,9.45199296 10.8346205,9.6178174 C11.3013711,9.78364184 11.8305091,9.86655405 12.4220346,9.86655405 Z M13.9054695,5.47220645 L10.4949555,5.47220645 C10.5134407,5.24189473 10.5781388,5.03461418 10.6890498,4.85036481 C10.7999609,4.66611543 10.9409103,4.51180658 11.1118981,4.38743825 C11.2828859,4.26306992 11.4746696,4.16864212 11.687249,4.10415484 C11.8998285,4.03966756 12.1262718,4.00742392 12.366579,4.00742392 C12.8841638,4.00742392 13.2700418,4.1387016 13.5242129,4.40125696 C13.7783839,4.66381232 13.9054695,5.02079548 13.9054695,5.47220645 L13.9054695,5.47220645 Z M23.7072311,9.67309221 L23.7072311,8.15303486 L19.4787484,8.15303486 L23.7072311,4.28379798 L23.7072311,2.76374063 L17.1634808,2.76374063 L17.1634808,4.28379798 L21.4335552,4.28379798 L17.1634808,8.15303486 L17.1634808,9.67309221 L23.7072311,9.67309221 Z M28.7536827,9.86655405 C29.3082378,9.86655405 29.809648,9.78594495 30.2579134,9.62472675 C30.7061788,9.46350855 31.0920567,9.22628747 31.4155472,8.91306354 C31.7390377,8.5998396 31.9885875,8.21752214 32.1641966,7.76611117 C32.3398057,7.3147002 32.4276103,6.79880195 32.4276103,6.21841642 C32.4276103,5.67488076 32.3467377,5.17740745 32.1849924,4.72599648 C32.0232472,4.27458551 31.7852506,3.88996494 31.4710027,3.57213477 C31.1567548,3.25430459 30.7708769,3.00787105 30.3133689,2.83283415 C29.855861,2.65779724 29.3359655,2.57027879 28.7536827,2.57027879 C28.1991276,2.57027879 27.6977173,2.65088789 27.2494519,2.81210609 C26.8011865,2.9733243 26.4153086,3.21054537 26.0918181,3.52376931 C25.7683276,3.83699324 25.5187778,4.2193107 25.3431687,4.67072167 C25.1675596,5.12213264 25.079755,5.63803089 25.079755,6.21841642 C25.079755,6.76195208 25.1606277,7.25942539 25.3223729,7.71083636 C25.4841181,8.16224733 25.7221147,8.5468679 26.0363626,8.86469808 C26.3506105,9.18252825 26.7364884,9.42896179 27.1939964,9.60399869 C27.6515044,9.7790356 28.1713998,9.86655405 28.7536827,9.86655405 Z M28.7536827,8.34649671 C28.4671625,8.34649671 28.2129914,8.29352501 27.9911694,8.18758162 C27.7693473,8.08163823 27.5798744,7.93193561 27.4227504,7.73847377 C27.2656265,7.54501192 27.1454728,7.31930644 27.0622896,7.06135731 C26.9791063,6.80340819 26.9375147,6.52242789 26.9375147,6.21841642 C26.9375147,5.8407052 26.9837276,5.51826879 27.0761535,5.2511072 C27.1685793,4.98394561 27.2956649,4.76284635 27.4574101,4.58780945 C27.6191553,4.41277254 27.810939,4.2861011 28.032761,4.20779511 C28.2545831,4.12948913 28.4948903,4.09033613 28.7536827,4.09033613 C29.3359655,4.09033613 29.7842309,4.2861011 30.0984788,4.67763102 C30.4127267,5.06916094 30.5698507,5.58275608 30.5698507,6.21841642 C30.5698507,6.95541392 30.4011735,7.49434335 30.0638191,7.83520469 C29.7264648,8.17606603 29.2897526,8.34649671 28.7536827,8.34649671 Z M37.2383759,9.86655405 C38.2458177,9.86655405 39.0060204,9.66618286 39.5189838,9.26544047 C40.0319473,8.86469808 40.2884291,8.31425307 40.2884291,7.61410544 C40.2884291,7.20875681 40.1752074,6.87710794 39.948764,6.61915881 C39.7223207,6.36120969 39.4427325,6.15162602 39.1099994,5.99040782 C38.7772664,5.82918962 38.4121843,5.69791194 38.0147531,5.59657478 C37.6173219,5.49523762 37.2522398,5.40080982 36.9195067,5.31329136 C36.5867737,5.22577291 36.3071855,5.13134511 36.0807421,5.03000795 C35.8542988,4.92867079 35.7410771,4.79509 35.7410771,4.62926556 C35.7410771,4.41737878 35.8612307,4.26076681 36.1015379,4.15942965 C36.3418452,4.05809249 36.6560931,4.00742392 37.0442816,4.00742392 C37.2568611,4.00742392 37.4717512,4.03045509 37.688952,4.07651743 C37.9061527,4.12257978 38.1141109,4.18246082 38.3128265,4.25616057 C38.511542,4.32986032 38.701015,4.41046942 38.8812455,4.49798788 C39.0614759,4.58550633 39.2209105,4.67072167 39.3595492,4.75363389 L39.3595492,4.75363389 L40.1220625,3.52376931 C39.9926663,3.43164462 39.837853,3.32800434 39.6576226,3.21284848 C39.4773922,3.09769262 39.2601914,2.99405235 39.0060204,2.90192766 C38.7518493,2.80980298 38.4537759,2.73149699 38.1118002,2.66700971 C37.7698246,2.60252243 37.3723934,2.57027879 36.9195067,2.57027879 C36.4943478,2.57027879 36.0992273,2.61634113 35.7341452,2.70846582 C35.3690631,2.80059051 35.0548152,2.93647442 34.7914015,3.11611756 C34.5279878,3.2957607 34.3200296,3.51455684 34.167527,3.77250596 C34.0150243,4.03045509 33.938773,4.32986032 33.938773,4.67072167 C33.938773,5.08528276 34.0519947,5.42384099 34.278438,5.68639635 C34.5048813,5.94895171 34.7844695,6.16544473 35.1172026,6.3358754 C35.4499357,6.50630607 35.8150178,6.63988687 36.212449,6.73661779 C36.6098801,6.83334871 36.9749622,6.92777652 37.3076953,7.0199012 C37.6404284,7.11202589 37.9200166,7.21336305 38.1464599,7.32391267 C38.3729033,7.4344623 38.4861249,7.5818618 38.4861249,7.76611117 C38.4861249,8.00563536 38.3798352,8.17606603 38.1672557,8.27740319 C37.9546763,8.37874035 37.7005052,8.42940893 37.4047425,8.42940893 C37.1274649,8.42940893 36.8478767,8.39486217 36.5659778,8.32576865 C36.284079,8.25667514 36.0183547,8.1714598 35.7688049,8.07012264 C35.5192551,7.96878549 35.2951224,7.85593274 35.0964068,7.73156442 C34.8976912,7.60719609 34.7382566,7.49434335 34.618103,7.39300619 L34.618103,7.39300619 L33.7862703,8.69196429 C34.1374886,9.00518822 34.6019285,9.27925917 35.1795901,9.51417712 C35.7572516,9.74909508 36.4435136,9.86655405 37.2383759,9.86655405 Z" id="TezosGigaNode"></path>
                        <path d="M5.8816533,43.3838186 L5.8816533,38.8098278 L5.7999338,37.6628755 L5.86803338,37.6628755 L9.12319336,43.3838186 L10.7575833,43.3838186 L10.7575833,33.7107264 L8.9869942,33.7107264 L8.9869942,38.4643602 L9.10957345,39.6251313 L9.04147387,39.6251313 L5.74545414,33.7107264 L4.11106419,33.7107264 L4.11106419,43.3838186 L5.8816533,43.3838186 Z M15.6062735,43.5772804 C16.1510701,43.5772804 16.6436571,43.4966713 17.0840344,43.3354531 C17.5244117,43.1742349 17.9034994,42.9370138 18.2212974,42.6237899 C18.5390955,42.3105659 18.7842539,41.9282485 18.9567729,41.4768375 C19.1292918,41.0254266 19.2155513,40.5095283 19.2155513,39.9291428 C19.2155513,39.3856071 19.1361018,38.8881338 18.9772028,38.4367228 C18.8183037,37.9853119 18.5844952,37.6006913 18.2757771,37.2828611 C17.967059,36.9650309 17.5879713,36.7185974 17.1385141,36.5435605 C16.6890568,36.3685236 16.17831,36.2810051 15.6062735,36.2810051 C15.0614768,36.2810051 14.5688899,36.3616142 14.1285126,36.5228324 C13.6881353,36.6840506 13.3090476,36.9212717 12.9912496,37.2344957 C12.6734515,37.5477196 12.428293,37.930037 12.2557741,38.381448 C12.0832552,38.832859 11.9969957,39.3487572 11.9969957,39.9291428 C11.9969957,40.4726784 12.0764452,40.9701517 12.2353442,41.4215627 C12.3942432,41.8729737 12.6280518,42.2575943 12.9367699,42.5754244 C13.245488,42.8932546 13.6245757,43.1396881 14.0740329,43.314725 C14.5234901,43.489762 15.034237,43.5772804 15.6062735,43.5772804 Z M15.6062735,42.0572231 C15.3247952,42.0572231 15.0750968,42.0042514 14.8571781,41.898308 C14.6392594,41.7923646 14.4531206,41.642662 14.2987615,41.4492001 C14.1444025,41.2557383 14.0263632,41.0300328 13.9446437,40.7720837 C13.8629242,40.5141345 13.8220645,40.2331542 13.8220645,39.9291428 C13.8220645,39.5514316 13.8674642,39.2289951 13.9582636,38.9618336 C14.0490631,38.694672 14.1739123,38.4735727 14.3328113,38.2985358 C14.4917103,38.1234989 14.6801192,37.9968274 14.8980378,37.9185215 C15.1159565,37.8402155 15.3520351,37.8010625 15.6062735,37.8010625 C16.17831,37.8010625 16.6186873,37.9968274 16.9274054,38.3883574 C17.2361235,38.7798873 17.3904825,39.2934824 17.3904825,39.9291428 C17.3904825,40.6661403 17.2247735,41.2050697 16.8933556,41.545931 C16.5619376,41.8867924 16.1329103,42.0572231 15.6062735,42.0572231 Z M23.0836075,43.5772804 C23.3106061,43.5772804 23.5376047,43.5519461 23.7646033,43.5012775 C23.9916019,43.450609 24.2004406,43.3769092 24.3911195,43.2801783 C24.5817983,43.1834474 24.7543172,43.0705946 24.9086763,42.9416201 C25.0630353,42.8126455 25.1856146,42.665246 25.276414,42.4994216 L25.276414,42.4994216 L25.3308937,42.4994216 L25.5079526,43.3838186 L27.7007591,43.3838186 L27.7007591,41.8637612 L26.8290845,41.8637612 C26.8200045,41.8176989 26.8154645,41.7716365 26.8154645,41.7255742 C26.742825,41.053064 26.7065052,40.3713413 26.7065052,39.6804061 L26.7065052,39.6804061 L26.7065052,33.7107264 L23.8599427,33.7107264 L23.8599427,35.2307837 L24.9359161,35.2307837 L24.9359161,36.5159231 C24.7543172,36.4422233 24.5386686,36.3892516 24.2889701,36.357008 C24.0392716,36.3247644 23.7736833,36.3086425 23.492205,36.3086425 C22.9837281,36.3086425 22.516111,36.3938579 22.0893536,36.5642886 C21.6625962,36.7347192 21.2925885,36.9788496 20.9793304,37.2966798 C20.6660724,37.61451 20.4209139,38.0037368 20.243855,38.4643602 C20.0667961,38.9249837 19.9782666,39.4500944 19.9782666,40.0396924 C19.9782666,40.6477153 20.0599861,41.1751292 20.2234251,41.6219339 C20.3868641,42.0687386 20.6093227,42.4372374 20.890801,42.7274302 C21.1722793,43.0176229 21.5014272,43.2318128 21.8782449,43.3699999 C22.2550626,43.5081869 22.6568501,43.5772804 23.0836075,43.5772804 Z M23.492205,42.0572231 C22.9474083,42.0572231 22.5297309,41.8775799 22.2391727,41.5182936 C21.9486145,41.1590074 21.8033354,40.6845652 21.8033354,40.0949672 C21.8033354,39.6804061 21.8555451,39.3303323 21.9599644,39.0447458 C22.0643838,38.7591592 22.2051229,38.5265444 22.3821818,38.3469013 C22.5592407,38.1672581 22.7635395,38.0359804 22.995078,37.9530682 C23.2266166,37.870156 23.4649652,37.8286999 23.7101236,37.8286999 C23.9552821,37.8286999 24.1890907,37.8540342 24.4115493,37.9047028 C24.634008,37.9553713 24.8087969,38.0313742 24.9359161,38.1327114 L24.9359161,38.1327114 L24.9359161,41.0622764 C24.8541966,41.3847128 24.6794077,41.6311464 24.4115493,41.801577 C24.143691,41.9720077 23.8372429,42.0572231 23.492205,42.0572231 Z M32.2498111,43.5772804 C32.5857691,43.5772804 32.9035671,43.549643 33.2032053,43.4943682 C33.5028434,43.4390934 33.7775117,43.3653936 34.0272102,43.2732689 C34.2769087,43.1811442 34.4948273,43.0821102 34.6809662,42.9761668 C34.867105,42.8702234 35.0191941,42.7619769 35.1372334,42.6514273 L35.1372334,42.6514273 L34.551577,41.4768375 C34.3336583,41.6610869 34.0499101,41.8176989 33.7003322,41.9466734 C33.3507544,42.075648 32.9035671,42.1401353 32.3587705,42.1401353 C32.0863721,42.1401353 31.8298637,42.1101948 31.5892452,42.0503137 C31.3486267,41.9904327 31.135248,41.8960049 30.9491091,41.7670303 C30.7629703,41.6380557 30.6131512,41.4722313 30.4996519,41.269557 C30.3861526,41.0668827 30.324863,40.818146 30.315783,40.523347 L30.315783,40.523347 L35.2189529,40.523347 C35.3097523,40.0627236 35.355152,39.6343438 35.355152,39.2382076 C35.355152,38.6578221 35.2575426,38.1787737 35.0623238,37.8010625 C34.867105,37.4233513 34.6151366,37.1216429 34.3064185,36.8959374 C33.9977004,36.6702319 33.6594725,36.5113169 33.2917347,36.4191922 C32.923997,36.3270675 32.5676092,36.2810051 32.2225713,36.2810051 C31.7050145,36.2810051 31.2237774,36.357008 30.7788602,36.5090137 C30.3339429,36.6610195 29.9457753,36.8890281 29.6143573,37.1930395 C29.2829394,37.497051 29.021891,37.8770654 28.8312122,38.3330826 C28.6405333,38.7890998 28.5451939,39.3211198 28.5451939,39.9291428 C28.5451939,40.5003158 28.6291834,41.0093047 28.7971624,41.4561095 C28.9651413,41.9029142 29.2080298,42.2852317 29.5258279,42.6030618 C29.8436259,42.920892 30.2317935,43.1627193 30.6903307,43.3285437 C31.1488679,43.4943682 31.6686947,43.5772804 32.2498111,43.5772804 Z M33.7071422,39.1829328 L30.3566428,39.1829328 C30.3748027,38.9526211 30.4383623,38.7453405 30.5473216,38.5610912 C30.6562809,38.3768418 30.7947501,38.2225329 30.962729,38.0981646 C31.130708,37.9737963 31.3191169,37.8793685 31.5279556,37.8148812 C31.7367943,37.7503939 31.9592529,37.7181503 32.1953315,37.7181503 C32.7038083,37.7181503 33.082896,37.8494279 33.3325945,38.1119833 C33.5822929,38.3745387 33.7071422,38.7315218 33.7071422,39.1829328 L33.7071422,39.1829328 Z" id="TezosGigaNode-Copy-2"></path>
                        <path d="M8.53781838,26.9625432 C9.06349544,26.9625432 9.5776445,26.8915097 10.0802655,26.7494427 C10.5828866,26.6073757 10.990978,26.3987148 11.3045398,26.1234599 L11.3045398,26.1234599 L11.3045398,21.9147247 L7.99830771,21.9147247 L7.99830771,23.2466029 L9.75517578,23.2466029 L9.75517578,25.0979137 C9.68139655,25.1511888 9.54536608,25.2044639 9.34708438,25.2577391 C9.14880268,25.3110142 8.92977057,25.3376518 8.68998806,25.3376518 C8.32109187,25.3376518 7.9775573,25.2666183 7.65938435,25.1245513 C7.34121139,24.9824842 7.06684485,24.7738233 6.83628474,24.4985685 C6.60572462,24.2233136 6.42588774,23.8859045 6.29677407,23.486341 C6.16766041,23.0867775 6.10310358,22.6339389 6.10310358,22.1278252 C6.10310358,21.5595571 6.16766041,21.0712018 6.29677407,20.6627591 C6.42588774,20.2543165 6.60803023,19.9191271 6.84320154,19.657191 C7.07837286,19.395255 7.3573506,19.2021326 7.68013476,19.077824 C8.00291892,18.9535154 8.35337029,18.8913611 8.73148888,18.8913611 C8.95282659,18.8913611 9.15571949,18.9091194 9.34016758,18.9446362 L9.34016758,18.9446362 L9.56150529,18.9979113 L9.56150529,20.4762962 L11.083202,20.4762962 L11.083202,17.7193082 C10.7788627,17.5861204 10.4422449,17.4773503 10.0733487,17.392998 C9.70445256,17.3086457 9.24333233,17.2664696 8.68998806,17.2664696 C8.15508859,17.2664696 7.61557792,17.3552615 7.07145605,17.5328452 C6.52733419,17.710429 6.03624114,17.9923432 5.59817693,18.3785879 C5.16011271,18.7648326 4.80274453,19.2598474 4.52607239,19.8636322 C4.24940026,20.467417 4.11106419,21.19995 4.11106419,22.0612313 C4.11106419,22.8781166 4.22634425,23.5906715 4.45690436,24.1988959 C4.68746447,24.8071203 5.00102623,25.3176736 5.39758963,25.7305559 C5.79415302,26.1434381 6.26219005,26.4519899 6.80170072,26.6562112 C7.34121139,26.8604326 7.91991727,26.9625432 8.53781838,26.9625432 Z M15.9526317,19.2776057 C16.3399726,19.2776057 16.6489232,19.1865941 16.8794833,19.0045707 C17.1100434,18.8225473 17.2253235,18.5894687 17.2253235,18.3053346 C17.2253235,18.0300798 17.1100434,17.7947813 16.8794833,17.5994392 C16.6489232,17.404097 16.3399726,17.3064259 15.9526317,17.3064259 C15.5745131,17.3064259 15.2793961,17.404097 15.0672808,17.5994392 C14.8551655,17.7947813 14.7491079,18.0300798 14.7491079,18.3053346 C14.7491079,18.5894687 14.8551655,18.8225473 15.0672808,19.0045707 C15.2793961,19.1865941 15.5745131,19.2776057 15.9526317,19.2776057 Z M19.4387006,26.7760803 L19.4387006,25.3110142 L16.8794833,25.3110142 L16.8794833,20.116689 L12.6463996,20.116689 L12.6463996,21.5817551 L15.0811144,21.5817551 L15.0811144,25.3110142 L12.6463996,25.3110142 L12.6463996,26.7760803 L19.4387006,26.7760803 Z M24.0867925,29.5996622 C24.5755799,29.5996622 25.0251721,29.5441672 25.4355691,29.4331774 C25.8459661,29.3221875 26.2010287,29.1490434 26.5007569,28.9137449 C26.800485,28.6784464 27.0356563,28.3832134 27.2062708,28.0280458 C27.3768853,27.6728783 27.4621926,27.2555564 27.4621926,26.7760803 L27.4621926,26.7760803 L27.4621926,20.3564271 C27.3146341,20.303152 27.130186,20.2520967 26.9088483,20.2032611 C26.6875106,20.1544256 26.4454224,20.1122494 26.1825839,20.0767327 C25.9197454,20.0412159 25.6407676,20.0123586 25.3456507,19.9901606 C25.0505338,19.9679626 24.7554168,19.9568637 24.4602999,19.9568637 C23.8977332,19.9568637 23.3881953,20.0345566 22.9316863,20.1899423 C22.4751773,20.3453281 22.0832251,20.576187 21.7558297,20.882519 C21.4284344,21.188851 21.1748182,21.5684363 20.9949813,22.0212749 C20.8151445,22.4741135 20.725226,22.9935461 20.725226,23.5795725 C20.725226,24.1389613 20.8013109,24.6273167 20.9534805,25.0446386 C21.1056502,25.4619604 21.3200711,25.806029 21.5967432,26.0768442 C21.8734154,26.3476594 22.1985051,26.549661 22.5720125,26.6828488 C22.9455199,26.8160366 23.3536113,26.8826305 23.7962867,26.8826305 C24.2205173,26.8826305 24.5940247,26.8315752 24.9168089,26.7294645 C25.239593,26.6273539 25.4839868,26.4697483 25.6499901,26.2566478 L25.6499901,26.2566478 L25.7053245,26.2566478 L25.7053245,26.6828488 C25.7053245,27.162325 25.5531548,27.5308113 25.2488155,27.7883077 C24.9444761,28.0458042 24.5018007,28.1745524 23.9207892,28.1745524 C23.4504466,28.1745524 23.0608,28.1101783 22.7518494,27.9814301 C22.4428989,27.8526819 22.1777547,27.7172742 21.956417,27.5752072 L21.956417,27.5752072 L21.2647367,28.8005352 C21.3754055,28.8893271 21.522964,28.9803388 21.7074121,29.0735703 C21.8918602,29.1668017 22.1062811,29.2533738 22.3506748,29.3332865 C22.5950685,29.4131992 22.8625183,29.4775733 23.153024,29.5264089 C23.4435298,29.5752444 23.7547859,29.5996622 24.0867925,29.5996622 Z M24.1421269,25.4974772 C23.9300116,25.4974772 23.7317299,25.455301 23.5472818,25.3709487 C23.3628337,25.2865964 23.1968304,25.160068 23.049272,24.9913634 C22.9017135,24.8226588 22.7864334,24.6139979 22.7034318,24.3653807 C22.6204302,24.1167634 22.5789293,23.8326294 22.5789293,23.5129786 C22.5789293,23.1489319 22.627347,22.8359405 22.7241822,22.5740044 C22.8210175,22.3120684 22.9547423,22.0945282 23.1253568,21.9213841 C23.2959713,21.7482399 23.494253,21.6217115 23.7202019,21.5417988 C23.9461508,21.4618861 24.1882389,21.4219297 24.4464663,21.4219297 C24.6585816,21.4219297 24.8822249,21.4374683 25.1173962,21.4685455 C25.3525675,21.4996226 25.53471,21.5417988 25.6638237,21.5950739 L25.6638237,21.5950739 L25.6638237,24.5918 C25.5623772,24.8936924 25.3710123,25.1201117 25.089729,25.2710579 C24.8084456,25.4220041 24.4925783,25.4974772 24.1421269,25.4974772 Z M31.4601049,26.8826305 C32.0411164,26.8826305 32.5022366,26.7827397 32.8434656,26.5829579 C33.1846946,26.3831762 33.4475331,26.1456579 33.6319812,25.8704031 L33.6319812,25.8704031 L33.7011492,25.8704031 L33.8809861,26.7760803 L36.1773649,26.7760803 L36.1773649,25.3110142 L35.2781804,25.3110142 C35.268958,25.1955848 35.2551244,25.0757157 35.2366796,24.9514071 C35.2182348,24.7205482 35.2090124,24.5118873 35.2090124,24.3254243 C35.2090124,24.076807 35.2251516,23.792673 35.25743,23.4730222 C35.2897084,23.1533714 35.3058476,22.7671268 35.3058476,22.3142882 C35.3058476,21.9591206 35.2597356,21.6394698 35.1675116,21.3553358 C35.0752875,21.0712018 34.9254234,20.8270241 34.7179193,20.6228028 C34.5104152,20.4185814 34.2383543,20.2609759 33.9017365,20.149986 C33.5651188,20.0389961 33.1570274,19.9835012 32.6774623,19.9835012 C32.0134492,19.9835012 31.4393545,20.0412159 30.9551783,20.1566454 C30.471002,20.2720748 30.0444658,20.4097023 29.6755696,20.5695276 L29.6755696,20.5695276 L30.1044115,21.9280435 C30.3626388,21.812614 30.6808117,21.6971846 31.0589303,21.5817551 C31.4370489,21.4663257 31.8612795,21.4086109 32.3316222,21.4086109 C32.7281856,21.4086109 33.0279137,21.4818642 33.2308066,21.6283709 C33.4336995,21.7748775 33.535146,22.0168353 33.535146,22.3542445 L33.535146,22.3542445 L33.535146,22.6073014 C33.535146,22.6960932 33.5259236,22.7848851 33.5074787,22.873677 C33.240029,22.8559186 33.0140801,22.8381603 32.829632,22.8204019 C32.6451839,22.8026435 32.4699582,22.7937643 32.3039549,22.7937643 C31.8336123,22.7937643 31.4070761,22.8359405 31.0243463,22.9202928 C30.6416165,23.004645 30.3142212,23.1333933 30.0421602,23.3065374 C29.7700993,23.4796816 29.5625952,23.7016613 29.4196479,23.9724766 C29.2767006,24.2432918 29.205227,24.5651624 29.205227,24.9380883 C29.205227,25.5241147 29.4081199,25.9947117 29.8139057,26.3498792 C30.2196915,26.7050468 30.7684246,26.8826305 31.4601049,26.8826305 Z M32.0411164,25.4575208 C31.690665,25.4575208 31.4393545,25.3887071 31.2871848,25.2510797 C31.1350152,25.1134523 31.0589303,24.9203299 31.0589303,24.6717126 C31.0589303,24.5207664 31.1004312,24.3920182 31.1834328,24.285468 C31.2664344,24.1789177 31.3771033,24.0923456 31.5154394,24.0257517 C31.6537754,23.9591578 31.8105563,23.9103223 31.985782,23.8792451 C32.1610077,23.8481679 32.3362334,23.8326294 32.511459,23.8326294 C32.7235744,23.8326294 32.9218561,23.8437283 33.1063041,23.8659263 C33.2907522,23.8881243 33.4290883,23.9081025 33.5213123,23.9258608 L33.5213123,23.9258608 L33.5213123,24.7249878 C33.4198659,24.9025715 33.2584738,25.0690563 33.0371361,25.2244421 C32.8157984,25.3798279 32.4837918,25.4575208 32.0411164,25.4575208 Z" id="TezosGigaNode-Copy"></path>
                    </g>
                </g>
                <g id="Group-6" transform="translate(280.568133, 43.390246) rotate(-82.000000) translate(-280.568133, -43.390246) translate(259.068133, -21.609754)">
                    <ellipse id="Oval" fill="#999999" cx="21.2802497" cy="108.557373" rx="3.6710253" ry="3.669872"></ellipse>
                    <use id="Oval" stroke="#999999" mask="url(#mask-2)" stroke-width="2" stroke-dasharray="3,10" transform="translate(21.392923, 108.871494) rotate(-15.000000) translate(-21.392923, -108.871494) " xlink:href="#path-1"></use>
                    <line x1="18.3472716" y1="91.3899473" x2="5.40370344" y2="1.55459244" id="Path-5" stroke="#999999" stroke-dasharray="3,10"></line>
                    <ellipse id="Oval" fill="#6BA462" cx="11.2429783" cy="41.9510672" rx="3.52674897" ry="3.525641"></ellipse>
                </g>
                <g id="Group-6" transform="translate(179.500000, 158.000000) rotate(9.000000) translate(-179.500000, -158.000000) translate(158.000000, 93.000000)">
                    <ellipse id="Oval" fill="#999999" cx="21.2802497" cy="108.557373" rx="3.6710253" ry="3.669872"></ellipse>
                    <use id="Oval" stroke="#999999" mask="url(#mask-4)" stroke-width="2" stroke-dasharray="3,10" transform="translate(21.392923, 108.871494) rotate(-15.000000) translate(-21.392923, -108.871494) " xlink:href="#path-3"></use>
                    <line x1="18.3472716" y1="91.3899473" x2="5.40370344" y2="1.55459244" id="Path-5" stroke="#999999" stroke-dasharray="3,10"></line>
                    <ellipse id="Oval" fill="#6BA462" cx="11.2429783" cy="41.9510672" rx="3.52674897" ry="3.525641"></ellipse>
                </g>
                <g id="Group-6" transform="translate(68.500000, 56.000000) rotate(99.000000) translate(-68.500000, -56.000000) translate(47.000000, -9.000000)">
                    <ellipse id="Oval" fill="#999999" cx="21.2802497" cy="108.557373" rx="3.6710253" ry="3.669872"></ellipse>
                    <use id="Oval" stroke="#999999" mask="url(#mask-6)" stroke-width="2" stroke-dasharray="3,10" transform="translate(21.392923, 108.871494) rotate(-15.000000) translate(-21.392923, -108.871494) " xlink:href="#path-5"></use>
                    <line x1="18.3472716" y1="91.3899473" x2="5.40370344" y2="1.55459244" id="Path-5" stroke="#999999" stroke-dasharray="3,10"></line>
                    <ellipse id="Oval" fill="#6BA462" cx="11.2429783" cy="41.9510672" rx="3.52674897" ry="3.525641"></ellipse>
                </g>
            </g>
        </g>
    </g>
</svg>