<?xml version="1.0" encoding="UTF-8"?>
<svg width="941px" height="120px" viewBox="0 0 941 120" version="1.1" xmlns="http://www.w3.org/2000/svg" xmlns:xlink="http://www.w3.org/1999/xlink">
    <!-- Generator: Sketch 63 (92445) - https://sketch.com -->
    <title>Artboard Copy 2</title>
    <desc>Created with Sketch.</desc>
    <g id="Artboard-Copy-2" stroke="none" stroke-width="1" fill="none" fill-rule="evenodd">
        <g id="Group-3">
            <g id="Group" transform="translate(152.000000, 19.000000)" fill="#333333" fill-rule="nonzero">
                <path d="M40.31645,63.2267819 L40.31645,53.4859611 L30.3257508,53.4859611 L30.3257508,10.9805616 L38.7250112,10.9805616 L38.7250112,21.6954644 L48.4504706,21.6954644 L48.4504706,1.23974082 L0,1.23974082 L0,21.6954644 L9.72545944,21.6954644 L9.72545944,10.9805616 L18.2131331,10.9805616 L18.2131331,53.4859611 L8.13402062,53.4859611 L8.13402062,63.2267819 L40.31645,63.2267819 Z M79.2182878,64.4665227 C81.3991484,64.4665227 83.4621246,64.2894168 85.4072165,63.9352052 C87.3523084,63.5809935 89.1353093,63.1087113 90.7562192,62.5183585 C92.3771291,61.9280058 93.7917414,61.2933765 95.000056,60.6144708 C96.2083707,59.9355652 97.1956522,59.2419006 97.9619005,58.5334773 L97.9619005,58.5334773 L94.16013,51.0064795 C92.7455177,52.187185 90.9035746,53.1907847 88.6343008,54.0172786 C86.3650269,54.8437725 83.4621246,55.2570194 79.9255939,55.2570194 C78.1573286,55.2570194 76.492212,55.0651548 74.9302443,54.6814255 C73.3682766,54.2976962 71.9831354,53.6925846 70.7748207,52.8660907 C69.5665061,52.0395968 68.5939601,50.9769618 67.8571829,49.6781857 C67.1204056,48.3794096 66.7225459,46.7854572 66.6636038,44.8963283 L66.6636038,44.8963283 L98.4923801,44.8963283 C99.0818019,41.9445644 99.3765128,39.199424 99.3765128,36.6609071 C99.3765128,32.9416847 98.7428844,29.8718503 97.4756275,27.4514039 C96.2083707,25.0309575 94.5727252,23.0975522 92.5686912,21.6511879 C90.5646571,20.2048236 88.369061,19.1864651 85.9819027,18.5961123 C83.5947445,18.0057595 81.281264,17.7105832 79.0414612,17.7105832 C75.6817571,17.7105832 72.5578216,18.1976242 69.6696549,19.1717063 C66.7814881,20.1457883 64.26171,21.6069114 62.1103205,23.5550756 C59.958931,25.5032397 58.2643433,27.9384449 57.0265576,30.8606911 C55.7887719,33.7829374 55.169879,37.1922246 55.169879,41.0885529 C55.169879,44.7487401 55.7150941,48.0104392 56.8055244,50.8736501 C57.8959547,53.7368611 59.472658,56.1868251 61.5356342,58.2235421 C63.5986105,60.2602592 66.1183886,61.8099352 69.0949686,62.8725702 C72.0715486,63.9352052 75.4459883,64.4665227 79.2182878,64.4665227 Z M88.6785074,36.3066955 L66.9288436,36.3066955 C67.0467279,34.8308135 67.4593232,33.5025198 68.1666293,32.3218143 C68.8739355,31.1411087 69.7728037,30.1522678 70.863234,29.3552916 C71.9536643,28.5583153 73.1767145,27.9532037 74.5323846,27.5399568 C75.8880547,27.1267099 77.3321381,26.9200864 78.8646347,26.9200864 C82.1653967,26.9200864 84.6262326,27.7613391 86.2471425,29.4438445 C87.8680524,31.1263499 88.6785074,33.4139669 88.6785074,36.3066955 L88.6785074,36.3066955 Z M151.186688,63.2267819 L151.186688,53.4859611 L124.220641,53.4859611 L151.186688,28.6911447 L151.186688,18.950324 L109.455625,18.950324 L109.455625,28.6911447 L136.686912,28.6911447 L109.455625,53.4859611 L109.455625,63.2267819 L151.186688,63.2267819 Z M183.369117,64.4665227 C186.905648,64.4665227 190.103261,63.949964 192.961957,62.9168467 C195.820652,61.8837293 198.281488,60.3635709 200.344464,58.3563715 C202.407441,56.3491721 203.998879,53.8992081 205.118781,51.0064795 C206.238682,48.1137509 206.798633,44.8077754 206.798633,41.0885529 C206.798633,37.6054716 206.282889,34.4175666 205.251401,31.524838 C204.219913,28.6321094 202.702152,26.1673866 200.698117,24.1306695 C198.694083,22.0939525 196.233247,20.5147588 193.31561,19.3930886 C190.397972,18.2714183 187.082474,17.7105832 183.369117,17.7105832 C179.832586,17.7105832 176.634973,18.2271418 173.776277,19.2602592 C170.917582,20.2933765 168.456746,21.8135349 166.39377,23.8207343 C164.330793,25.8279338 162.739355,28.2778978 161.619453,31.1706263 C160.499552,34.0633549 159.939601,37.3693305 159.939601,41.0885529 C159.939601,44.5716343 160.455345,47.7595392 161.486833,50.6522678 C162.518321,53.5449964 164.036082,56.0097192 166.040117,58.0464363 C168.044151,60.0831533 170.504987,61.662347 173.422624,62.7840173 C176.340262,63.9056875 179.65576,64.4665227 183.369117,64.4665227 Z M183.369117,54.7257019 C181.541909,54.7257019 179.921,54.3862491 178.506387,53.7073434 C177.091775,53.0284377 175.88346,52.0691145 174.881443,50.8293737 C173.879426,49.5896328 173.113178,48.1432685 172.582698,46.4902808 C172.052219,44.837293 171.786979,43.0367171 171.786979,41.0885529 C171.786979,38.6681066 172.08169,36.6018719 172.671112,34.8898488 C173.260533,33.1778258 174.070988,31.7609791 175.102476,30.6393089 C176.133965,29.5176386 177.357015,28.7059035 178.771627,28.2041037 C180.186239,27.7023038 181.718736,27.4514039 183.369117,27.4514039 C187.082474,27.4514039 189.94117,28.7059035 191.945204,31.2149028 C193.949238,33.7239021 194.951255,37.0151188 194.951255,41.0885529 C194.951255,45.8113751 193.87556,49.2649388 191.724171,51.4492441 C189.572781,53.6335493 186.787763,54.7257019 183.369117,54.7257019 Z M237.478037,64.4665227 C243.902734,64.4665227 248.750728,63.1825054 252.022019,60.6144708 C255.29331,58.0464363 256.928956,54.5190785 256.928956,50.0323974 C256.928956,47.4348452 256.206914,45.3095752 254.762831,43.6565875 C253.318747,42.0035997 251.535746,40.6605472 249.413828,39.6274298 C247.291909,38.5943125 244.963693,37.7530598 242.42918,37.1036717 C239.894666,36.4542837 237.56645,35.8491721 235.444532,35.2883369 C233.322613,34.7275018 231.539612,34.1223902 230.095529,33.4730022 C228.651446,32.8236141 227.929404,31.9676026 227.929404,30.9049676 C227.929404,29.5471562 228.695652,28.5435565 230.228149,27.8941685 C231.760645,27.2447804 233.76468,26.9200864 236.240251,26.9200864 C237.595921,26.9200864 238.966327,27.0676746 240.351468,27.362851 C241.736609,27.6580274 243.062808,28.0417567 244.330065,28.5140389 C245.597322,28.9863211 246.805636,29.5028798 247.955009,30.0637149 C249.104381,30.62455 250.121134,31.1706263 251.005267,31.7019438 L251.005267,31.7019438 L255.867996,23.8207343 C255.042806,23.2303816 254.055524,22.5662347 252.906152,21.8282937 C251.756779,21.0903528 250.371638,20.4262059 248.750728,19.8358531 C247.129818,19.2455004 245.228933,18.7437005 243.048073,18.3304536 C240.867212,17.9172066 238.332698,17.7105832 235.444532,17.7105832 C232.733191,17.7105832 230.213413,18.0057595 227.885197,18.5961123 C225.556981,19.1864651 223.552947,20.0572354 221.873095,21.2084233 C220.193243,22.3596112 218.867044,23.7616991 217.894498,25.4146868 C216.921952,27.0676746 216.435679,28.9863211 216.435679,31.1706263 C216.435679,33.8272138 217.157721,35.9967603 218.601804,37.6792657 C220.045887,39.3617711 221.828888,40.7491001 223.950807,41.8412527 C226.072725,42.9334053 228.400941,43.7894168 230.935455,44.4092873 C233.469969,45.0291577 235.798185,45.6342693 237.920103,46.224622 C240.042022,46.8149748 241.825022,47.4643629 243.269106,48.1727862 C244.713189,48.8812095 245.435231,49.8257739 245.435231,51.0064795 C245.435231,52.5413967 244.757396,53.6335493 243.401726,54.2829374 C242.046056,54.9323254 240.425146,55.2570194 238.538996,55.2570194 C236.770731,55.2570194 234.98773,55.0356371 233.189993,54.5928726 C231.392257,54.150108 229.697669,53.6040317 228.10623,52.9546436 C226.514792,52.3052556 225.085444,51.5820734 223.818187,50.7850972 C222.55093,49.988121 221.534177,49.2649388 220.767929,48.6155508 L220.767929,48.6155508 L215.463133,56.9395248 C217.702936,58.9467243 220.66478,60.7030238 224.348667,62.2084233 C228.032553,63.7138229 232.409009,64.4665227 237.478037,64.4665227 Z M347.994621,64.4665227 C351.354325,64.4665227 354.640352,63.9942405 357.852701,63.049676 C361.065049,62.1051116 363.673241,60.7177826 365.677275,58.887689 L365.677275,58.887689 L365.677275,30.9049676 L344.546504,30.9049676 L344.546504,39.7602592 L355.774989,39.7602592 L355.774989,52.0691145 C355.303451,52.4233261 354.434054,52.7775378 353.166797,53.1317495 C351.899541,53.4859611 350.499664,53.663067 348.967167,53.663067 C346.60948,53.663067 344.413884,53.1907847 342.380379,52.2462203 C340.346874,51.3016559 338.593344,49.9143269 337.119789,48.0842333 C335.646235,46.2541397 334.496862,44.0107991 333.671672,41.3542117 C332.846481,38.6976242 332.433886,35.6868251 332.433886,32.3218143 C332.433886,28.5435565 332.846481,25.2966163 333.671672,22.5809935 C334.496862,19.8653708 335.66097,17.6367891 337.163996,15.8952484 C338.667022,14.1537077 340.450022,12.8696904 342.512999,12.0431965 C344.575975,11.2167027 346.815778,10.8034557 349.232407,10.8034557 C350.647019,10.8034557 351.943747,10.9215263 353.122591,11.1576674 L353.122591,11.1576674 L354.537203,11.511879 L354.537203,21.3412527 L364.262662,21.3412527 L364.262662,3.01079914 C362.317571,2.12526998 360.166181,1.40208783 357.808494,0.8412527 C355.450807,0.280417567 352.503698,0 348.967167,0 C345.548521,0 342.100403,0.590352772 338.622815,1.77105832 C335.145226,2.95176386 332.006555,4.82613391 329.206802,7.39416847 C326.407048,9.96220302 324.123039,13.2534197 322.354774,17.2678186 C320.586508,21.2822174 319.702376,26.1526278 319.702376,31.8790497 C319.702376,37.3102952 320.439153,42.0478762 321.912707,46.0917927 C323.386262,50.1357091 325.390296,53.5302376 327.92481,56.275378 C330.459323,59.0205184 333.450639,61.0719942 336.898756,62.4298056 C340.346874,63.787617 344.045495,64.4665227 347.994621,64.4665227 Z M395.384133,13.3714903 C397.859704,13.3714903 399.834267,12.7663787 401.307822,11.5561555 C402.781376,10.3459323 403.518153,8.7962563 403.518153,6.90712743 C403.518153,5.07703384 402.781376,3.51259899 401.307822,2.21382289 C399.834267,0.915046796 397.859704,0.265658747 395.384133,0.265658747 C392.967503,0.265658747 391.081354,0.915046796 389.725684,2.21382289 C388.370013,3.51259899 387.692178,5.07703384 387.692178,6.90712743 C387.692178,8.7962563 388.370013,10.3459323 389.725684,11.5561555 C391.081354,12.7663787 392.967503,13.3714903 395.384133,13.3714903 Z M417.664276,63.2267819 L417.664276,53.4859611 L401.307822,53.4859611 L401.307822,18.950324 L374.253362,18.950324 L374.253362,28.6911447 L389.814097,28.6911447 L389.814097,53.4859611 L374.253362,53.4859611 L374.253362,63.2267819 L417.664276,63.2267819 Z M447.371134,82 C450.495069,82 453.368501,81.6310295 455.991428,80.8930886 C458.614355,80.1551476 460.883628,79.0039597 462.799249,77.4395248 C464.71487,75.87509 466.217896,73.912167 467.308326,71.5507559 C468.398756,69.1893449 468.943971,66.4146868 468.943971,63.2267819 L468.943971,63.2267819 L468.943971,20.5442765 C468.000896,20.1900648 466.822053,19.850612 465.407441,19.5259179 C463.992828,19.2012239 462.445596,18.9208063 460.765744,18.6846652 C459.085892,18.4485241 457.302891,18.2566595 455.416741,18.1090713 C453.530592,17.9614831 451.644442,17.887689 449.758292,17.887689 C446.162819,17.887689 442.906264,18.4042477 439.988626,19.437365 C437.070988,20.4704824 434.565946,22.0053996 432.473498,24.0421166 C430.381051,26.0788337 428.760141,28.6025918 427.610769,31.6133909 C426.461396,34.6241901 425.88671,38.0777538 425.88671,41.9740821 C425.88671,45.6933045 426.372983,48.9402448 427.345529,51.7149028 C428.318075,54.4895608 429.688481,56.7771778 431.456746,58.5777538 C433.225011,60.3783297 435.302723,61.7213823 437.689881,62.6069114 C440.077039,63.4924406 442.685231,63.9352052 445.514455,63.9352052 C448.225796,63.9352052 450.612954,63.5957523 452.67593,62.9168467 C454.738906,62.237941 456.300874,61.1900648 457.361833,59.7732181 L457.361833,59.7732181 L457.715486,59.7732181 L457.715486,62.6069114 C457.715486,65.7948164 456.74294,68.2447804 454.797848,69.9568035 C452.852757,71.6688265 450.023532,72.524838 446.310175,72.524838 C443.304124,72.524838 440.813817,72.0968323 438.839254,71.2408207 C436.864691,70.3848092 435.170103,69.4845212 433.755491,68.5399568 L433.755491,68.5399568 L429.334827,76.6868251 C430.042134,77.2771778 430.985208,77.8822894 432.164052,78.5021598 C433.342896,79.1220302 434.713301,79.6976242 436.275269,80.2289417 C437.837237,80.7602592 439.54656,81.1882649 441.403238,81.512959 C443.259917,81.837653 445.249216,82 447.371134,82 Z M447.724787,54.7257019 C446.369117,54.7257019 445.10186,54.4452844 443.923017,53.8844492 C442.744173,53.3236141 441.683214,52.4823614 440.740139,51.3606911 C439.797064,50.2390209 439.060287,48.8516919 438.529807,47.1987041 C437.999328,45.5457163 437.734088,43.6565875 437.734088,41.5313175 C437.734088,39.1108711 438.043534,37.0298776 438.662427,35.2883369 C439.28132,33.5467963 440.135982,32.100432 441.226412,30.9492441 C442.316842,29.7980562 443.584099,28.9568035 445.028182,28.425486 C446.472266,27.8941685 448.019498,27.6285097 449.669879,27.6285097 C451.025549,27.6285097 452.454897,27.7318215 453.957922,27.9384449 C455.460948,28.1450684 456.625056,28.425486 457.450247,28.7796976 L457.450247,28.7796976 L457.450247,48.7041037 C456.801883,50.7113031 455.578832,52.2167027 453.781096,53.2203024 C451.983359,54.2239021 449.96459,54.7257019 447.724787,54.7257019 Z M494.495406,63.9352052 C498.208763,63.9352052 501.155872,63.2710583 503.336732,61.9427646 C505.517593,60.6144708 507.197445,59.0352772 508.376289,57.2051836 L508.376289,57.2051836 L508.818355,57.2051836 L509.967727,63.2267819 L524.64433,63.2267819 L524.64433,53.4859611 L518.897468,53.4859611 C518.838525,52.7185025 518.750112,51.9215263 518.632228,51.0950324 C518.514343,49.5601152 518.455401,48.1727862 518.455401,46.9330454 C518.455401,45.2800576 518.55855,43.3909287 518.764848,41.2656587 C518.971145,39.1403888 519.074294,36.5723542 519.074294,33.5615551 C519.074294,31.200144 518.779583,29.074874 518.190161,27.1857451 C517.60074,25.2966163 516.642929,23.6731461 515.31673,22.3153348 C513.990531,20.9575234 512.251737,19.9096472 510.100347,19.1717063 C507.948958,18.4337653 505.340766,18.0647948 502.275773,18.0647948 C498.031936,18.0647948 494.362786,18.4485241 491.268321,19.2159827 C488.173857,19.9834413 485.447781,20.8984881 483.090094,21.9611231 L483.090094,21.9611231 L485.830905,30.9935205 C487.481286,30.2260619 489.514792,29.4586033 491.931421,28.6911447 C494.34805,27.9236861 497.05939,27.5399568 500.065442,27.5399568 C502.599955,27.5399568 504.515576,28.0269978 505.812304,29.0010799 C507.109032,29.975162 507.757396,31.5838733 507.757396,33.8272138 L507.757396,33.8272138 L507.757396,35.5097192 C507.757396,36.100072 507.698454,36.6904248 507.580569,37.2807775 C505.871246,37.162707 504.427163,37.0446364 503.248319,36.9265659 C502.069476,36.8084953 500.949574,36.74946 499.888615,36.74946 C496.882564,36.74946 494.156488,37.0298776 491.710388,37.5907127 C489.264287,38.1515479 487.17184,39.0075594 485.433046,40.1587473 C483.694251,41.3099352 482.368052,42.7858171 481.454449,44.5863931 C480.540845,46.386969 480.084043,48.5269978 480.084043,51.0064795 C480.084043,54.9028078 481.380771,58.0316775 483.974227,60.3930886 C486.567683,62.7544996 490.074742,63.9352052 494.495406,63.9352052 Z M498.208763,54.4600432 C495.96896,54.4600432 494.362786,54.0025198 493.39024,53.087473 C492.417694,52.1724262 491.931421,50.8884089 491.931421,49.2354212 C491.931421,48.2318215 492.196661,47.3758099 492.72714,46.6673866 C493.25762,45.9589633 493.964926,45.3833693 494.849059,44.9406048 C495.733191,44.4978402 496.735208,44.1731461 497.85511,43.9665227 C498.975011,43.7598992 500.094913,43.6565875 501.214814,43.6565875 C502.570484,43.6565875 503.837741,43.7303816 505.016584,43.8779698 C506.195428,44.025558 507.079561,44.1583873 507.668983,44.2764579 L507.668983,44.2764579 L507.668983,49.5896328 C507.020619,50.7703384 505.98913,51.8772498 504.574518,52.9103672 C503.159906,53.9434845 501.037987,54.4600432 498.208763,54.4600432 Z M597.673689,63.2267819 L597.673689,33.9157667 L597.143209,26.5658747 L597.585276,26.5658747 L618.716047,63.2267819 L629.325639,63.2267819 L629.325639,1.23974082 L617.831914,1.23974082 L617.831914,31.7019438 L618.627633,39.1403888 L618.185567,39.1403888 L596.789556,1.23974082 L586.179964,1.23974082 L586.179964,63.2267819 L597.673689,63.2267819 Z M660.800762,64.4665227 C664.337293,64.4665227 667.534906,63.949964 670.393602,62.9168467 C673.252297,61.8837293 675.713133,60.3635709 677.776109,58.3563715 C679.839086,56.3491721 681.430524,53.8992081 682.550426,51.0064795 C683.670327,48.1137509 684.230278,44.8077754 684.230278,41.0885529 C684.230278,37.6054716 683.714534,34.4175666 682.683046,31.524838 C681.651558,28.6321094 680.133797,26.1673866 678.129762,24.1306695 C676.125728,22.0939525 673.664892,20.5147588 670.747255,19.3930886 C667.829617,18.2714183 664.514119,17.7105832 660.800762,17.7105832 C657.264231,17.7105832 654.066618,18.2271418 651.207922,19.2602592 C648.349227,20.2933765 645.888391,21.8135349 643.825415,23.8207343 C641.762438,25.8279338 640.171,28.2778978 639.051098,31.1706263 C637.931197,34.0633549 637.371246,37.3693305 637.371246,41.0885529 C637.371246,44.5716343 637.88699,47.7595392 638.918478,50.6522678 C639.949966,53.5449964 641.467727,56.0097192 643.471762,58.0464363 C645.475796,60.0831533 647.936632,61.662347 650.854269,62.7840173 C653.771907,63.9056875 657.087405,64.4665227 660.800762,64.4665227 Z M660.800762,54.7257019 C658.973554,54.7257019 657.352645,54.3862491 655.938032,53.7073434 C654.52342,53.0284377 653.315105,52.0691145 652.313088,50.8293737 C651.311071,49.5896328 650.544823,48.1432685 650.014343,46.4902808 C649.483864,44.837293 649.218624,43.0367171 649.218624,41.0885529 C649.218624,38.6681066 649.513335,36.6018719 650.102757,34.8898488 C650.692178,33.1778258 651.502633,31.7609791 652.534121,30.6393089 C653.56561,29.5176386 654.78866,28.7059035 656.203272,28.2041037 C657.617884,27.7023038 659.150381,27.4514039 660.800762,27.4514039 C664.514119,27.4514039 667.372815,28.7059035 669.376849,31.2149028 C671.380883,33.7239021 672.3829,37.0151188 672.3829,41.0885529 C672.3829,45.8113751 671.307205,49.2649388 669.155816,51.4492441 C667.004426,53.6335493 664.219408,54.7257019 660.800762,54.7257019 Z M709.339646,64.4665227 C710.8132,64.4665227 712.286755,64.3041757 713.760309,63.9794816 C715.233864,63.6547876 716.589534,63.1825054 717.82732,62.562635 C719.065105,61.9427646 720.185007,61.2195824 721.187024,60.3930886 C722.189041,59.5665947 722.98476,58.6220302 723.574182,57.5593952 L723.574182,57.5593952 L723.927835,57.5593952 L725.077208,63.2267819 L739.311744,63.2267819 L739.311744,53.4859611 L733.653294,53.4859611 C733.594352,53.1907847 733.564881,52.8956084 733.564881,52.600432 C733.093344,48.2908567 732.857575,43.9222462 732.857575,39.4946004 L732.857575,39.4946004 L732.857575,1.23974082 L714.379202,1.23974082 L714.379202,10.9805616 L721.36385,10.9805616 L721.36385,19.2159827 C720.185007,18.7437005 718.78513,18.4042477 717.16422,18.1976242 C715.54331,17.9910007 713.819251,17.887689 711.992044,17.887689 C708.691282,17.887689 705.65576,18.4337653 702.885477,19.5259179 C700.115195,20.6180706 697.713301,22.1825054 695.679796,24.2192225 C693.646291,26.2559395 692.054852,28.75018 690.90548,31.7019438 C689.756107,34.6537077 689.181421,38.0187185 689.181421,41.7969762 C689.181421,45.6933045 689.7119,49.0730742 690.77286,51.9362851 C691.833819,54.799496 693.277902,57.1609071 695.10511,59.0205184 C696.932317,60.8801296 699.068971,62.2526998 701.515072,63.1382289 C703.961172,64.0237581 706.569364,64.4665227 709.339646,64.4665227 Z M711.992044,54.7257019 C708.455513,54.7257019 705.744173,53.574514 703.858023,51.2721382 C701.971874,48.9697624 701.028799,45.9294456 701.028799,42.1511879 C701.028799,39.4946004 701.367716,37.2512599 702.045551,35.4211663 C702.723386,33.5910727 703.63699,32.100432 704.786363,30.9492441 C705.935735,29.7980562 707.261934,28.9568035 708.76496,28.425486 C710.267985,27.8941685 711.815217,27.6285097 713.406656,27.6285097 C714.998095,27.6285097 716.515856,27.7908567 717.959939,28.1155508 C719.404023,28.4402448 720.53866,28.9272858 721.36385,29.5766739 L721.36385,29.5766739 L721.36385,48.349892 C720.833371,50.4161267 719.698734,51.9953204 717.959939,53.087473 C716.221145,54.1796256 714.231847,54.7257019 711.992044,54.7257019 Z M768.841775,64.4665227 C771.022636,64.4665227 773.085612,64.2894168 775.030704,63.9352052 C776.975796,63.5809935 778.758797,63.1087113 780.379706,62.5183585 C782.000616,61.9280058 783.415229,61.2933765 784.623543,60.6144708 C785.831858,59.9355652 786.819139,59.2419006 787.585388,58.5334773 L787.585388,58.5334773 L783.783617,51.0064795 C782.369005,52.187185 780.527062,53.1907847 778.257788,54.0172786 C775.988514,54.8437725 773.085612,55.2570194 769.549081,55.2570194 C767.780816,55.2570194 766.115699,55.0651548 764.553732,54.6814255 C762.991764,54.2976962 761.606623,53.6925846 760.398308,52.8660907 C759.189993,52.0395968 758.217447,50.9769618 757.48067,49.6781857 C756.743893,48.3794096 756.346033,46.7854572 756.287091,44.8963283 L756.287091,44.8963283 L788.115867,44.8963283 C788.705289,41.9445644 789,39.199424 789,36.6609071 C789,32.9416847 788.366372,29.8718503 787.099115,27.4514039 C785.831858,25.0309575 784.196212,23.0975522 782.192178,21.6511879 C780.188144,20.2048236 777.992548,19.1864651 775.60539,18.5961123 C773.218232,18.0057595 770.904751,17.7105832 768.664948,17.7105832 C765.305244,17.7105832 762.181309,18.1976242 759.293142,19.1717063 C756.404975,20.1457883 753.885197,21.6069114 751.733808,23.5550756 C749.582418,25.5032397 747.887831,27.9384449 746.650045,30.8606911 C745.412259,33.7829374 744.793366,37.1922246 744.793366,41.0885529 C744.793366,44.7487401 745.338581,48.0104392 746.429012,50.8736501 C747.519442,53.7368611 749.096145,56.1868251 751.159121,58.2235421 C753.222098,60.2602592 755.741876,61.8099352 758.718456,62.8725702 C761.695036,63.9352052 765.069476,64.4665227 768.841775,64.4665227 Z M778.301995,36.3066955 L756.552331,36.3066955 C756.670215,34.8308135 757.08281,33.5025198 757.790117,32.3218143 C758.497423,31.1411087 759.396291,30.1522678 760.486721,29.3552916 C761.577152,28.5583153 762.800202,27.9532037 764.155872,27.5399568 C765.511542,27.1267099 766.955625,26.9200864 768.488122,26.9200864 C771.788884,26.9200864 774.24972,27.7613391 775.87063,29.4438445 C777.49154,31.1263499 778.301995,33.4139669 778.301995,36.3066955 L778.301995,36.3066955 Z" id="TezosGigaNode"></path>
            </g>
            <g id="Group-2">
                <circle id="Oval" fill="#78BB6D" cx="60" cy="60" r="27.2727273"></circle>
                <g id="Group" transform="translate(51.818182, 0.000000)" fill="#333333">
                    <circle id="Oval" cx="8.18181818" cy="8.18181818" r="8.18181818"></circle>
                    <circle id="Oval" cx="8.18181818" cy="111.818182" r="8.18181818"></circle>
                </g>
                <g id="Group" transform="translate(60.000000, 60.318182) rotate(90.000000) translate(-60.000000, -60.318182) translate(51.500000, 0.318182)" fill="#333333">
                    <circle id="Oval" cx="8.18181818" cy="8.18181818" r="8.18181818"></circle>
                    <circle id="Oval" cx="8.18181818" cy="111.818182" r="8.18181818"></circle>
                </g>
                <g id="Group" transform="translate(59.860719, 59.883130) rotate(40.000000) translate(-59.860719, -59.883130) translate(48.860719, -1.116870)" fill="#333333">
                    <circle id="Oval" transform="translate(12.990247, 9.213384) rotate(2.000000) translate(-12.990247, -9.213384) " cx="12.9902466" cy="9.21338442" r="8.18181818"></circle>
                    <circle id="Oval" transform="translate(9.373390, 112.786616) rotate(2.000000) translate(-9.373390, -112.786616) " cx="9.37338972" cy="112.786616" r="8.18181818"></circle>
                </g>
                <g id="Group" transform="translate(59.775011, 60.224989) rotate(135.000000) translate(-59.775011, -60.224989) translate(51.275011, 0.224989)" fill="#333333">
                    <circle id="Oval" cx="8.18181818" cy="8.18181818" r="8.18181818"></circle>
                    <circle id="Oval" cx="8.18181818" cy="111.818182" r="8.18181818"></circle>
                </g>
            </g>
        </g>
    </g>
</svg>