<?xml version="1.0" encoding="UTF-8"?>
<svg width="120px" height="120px" viewBox="0 0 120 120" version="1.1" xmlns="http://www.w3.org/2000/svg" xmlns:xlink="http://www.w3.org/1999/xlink">
    <!-- Generator: Sketch 63 (92445) - https://sketch.com -->
    <title>Artboard Copy 5</title>
    <desc>Created with Sketch.</desc>
    <g id="Artboard-Copy-5" stroke="none" stroke-width="1" fill="none" fill-rule="evenodd">
        <g id="Group-3">
            <g id="Group-2">
                <circle id="Oval" fill="#78BB6D" cx="60" cy="60" r="27.2727273"></circle>
                <g id="Group" transform="translate(51.818182, 0.000000)" fill="#333333">
                    <circle id="Oval" cx="8.18181818" cy="8.18181818" r="8.18181818"></circle>
                    <circle id="Oval" cx="8.18181818" cy="111.818182" r="8.18181818"></circle>
                </g>
                <g id="Group" transform="translate(60.000000, 60.318182) rotate(90.000000) translate(-60.000000, -60.318182) translate(51.500000, 0.318182)" fill="#333333">
                    <circle id="Oval" cx="8.18181818" cy="8.18181818" r="8.18181818"></circle>
                    <circle id="Oval" cx="8.18181818" cy="111.818182" r="8.18181818"></circle>
                </g>
                <g id="Group" transform="translate(59.860719, 59.883130) rotate(40.000000) translate(-59.860719, -59.883130) translate(48.860719, -1.116870)" fill="#333333">
                    <circle id="Oval" transform="translate(12.990247, 9.213384) rotate(2.000000) translate(-12.990247, -9.213384) " cx="12.9902466" cy="9.21338442" r="8.18181818"></circle>
                    <circle id="Oval" transform="translate(9.373390, 112.786616) rotate(2.000000) translate(-9.373390, -112.786616) " cx="9.37338972" cy="112.786616" r="8.18181818"></circle>
                </g>
                <g id="Group" transform="translate(59.775011, 60.224989) rotate(135.000000) translate(-59.775011, -60.224989) translate(51.275011, 0.224989)" fill="#333333">
                    <circle id="Oval" cx="8.18181818" cy="8.18181818" r="8.18181818"></circle>
                    <circle id="Oval" cx="8.18181818" cy="111.818182" r="8.18181818"></circle>
                </g>
            </g>
        </g>
    </g>
</svg>