<?xml version="1.0" encoding="UTF-8"?>
<svg width="374px" height="50px" viewBox="0 0 374 50" version="1.1" xmlns="http://www.w3.org/2000/svg" xmlns:xlink="http://www.w3.org/1999/xlink">
    <!-- Generator: Sketch 63 (92445) - https://sketch.com -->
    <title>TezosNotif Copy@2x</title>
    <desc>Created with Sketch.</desc>
    <g id="TezosNotif-Copy" stroke="none" stroke-width="1" fill="none" fill-rule="evenodd">
        <g id="tezos">
            <path d="M93.8866977,12.027594 L93.8866977,20.9082916 L88.7528832,20.9082916 L88.4779063,17.1774455 L82.335713,17.1774455 L82.335713,40.6606955 L85.9109339,41.3472816 L85.9109339,45.3527361 L72.0680841,45.3527361 L72.0680841,41.3472816 L75.6433051,40.6606955 L75.6433051,17.1774455 L69.524059,17.1774455 L69.2489517,20.9082916 L64.1380846,20.9082916 L64.1380846,12.027594 L93.8866977,12.027594 Z M106.056609,45.8333333 C102.481257,45.8333333 99.6240531,44.6889364 97.4849964,42.4001424 C95.3459396,40.1113484 94.2764112,37.2045879 94.2764112,33.6798609 L94.2764112,32.7642391 C94.2764112,29.0869084 95.2847902,26.0580129 97.3016784,23.6776828 C99.3338215,21.2973528 102.053472,20.1148049 105.46076,20.1298939 C108.806899,20.1298939 111.404381,21.1370669 113.253076,23.1512524 C115.101901,25.165438 116.026313,27.8891262 116.026313,31.3223172 L116.026313,34.9614969 L101.220718,34.9614969 L101.174954,35.0988662 C101.297123,36.7315427 101.839514,38.0743765 102.802129,39.1272374 C103.779998,40.179968 105.101686,40.7063984 106.767063,40.7063984 C108.249253,40.7063984 109.479151,40.5614771 110.457021,40.2716343 C111.43489,39.9664271 112.504419,39.4933819 113.665736,38.8524987 L115.476229,42.972406 C114.452595,43.7811271 113.123214,44.4601611 111.488347,45.0093779 C109.868735,45.5587249 108.058242,45.8333333 106.056609,45.8333333 Z M105.46076,25.2798907 C104.223169,25.2798907 103.245299,25.7529359 102.527152,26.6988961 C101.809005,27.6449865 101.365965,28.8886018 101.197901,30.4297422 L101.266613,30.5441949 L109.471589,30.5441949 L109.471589,29.9490147 C109.471589,28.5300094 109.135333,27.4008467 108.46308,26.561657 C107.806082,25.7071027 106.805265,25.2798907 105.46076,25.2798907 Z M128.081618,40.2258012 L135.003499,40.2258012 L135.278606,36.9298493 L140.389604,36.9298493 L140.389604,45.3527361 L119.784982,45.3527361 L119.784982,41.4160313 L131.588779,25.7604879 L125.514645,25.7604879 L125.262616,29.0335232 L120.128801,29.0335232 L120.128801,20.5878501 L139.976291,20.5878501 L139.976291,24.4101021 L128.081618,40.2258012 Z M143.368846,32.7414527 C143.368846,29.0487575 144.400172,26.0275443 146.462825,23.6776828 C148.541123,21.3125871 151.405629,20.1300392 155.057645,20.1300392 C158.724003,20.1300392 161.588509,21.3049048 163.651161,23.6547663 C165.72946,26.0046277 166.768609,29.0335232 166.768609,32.7414527 L166.768609,33.22205 C166.768609,36.9452139 165.72946,39.9816614 163.651161,42.3315229 C161.588509,44.66615 158.739649,45.8333333 155.103279,45.8333333 C151.419971,45.8333333 148.541123,44.66615 146.462825,42.3315229 C144.400172,39.9816614 143.368846,36.9452139 143.368846,33.22205 L143.368846,32.7414527 Z M150.061384,33.22205 C150.061384,35.4803753 150.457747,37.2961241 151.253081,38.6694265 C152.047111,40.0274946 153.330076,40.7063984 155.103279,40.7063984 C156.829544,40.7063984 158.090344,40.0198123 158.884374,38.6465099 C159.69405,37.2732075 160.09954,35.4650108 160.09954,33.22205 L160.09954,32.7414527 C160.09954,30.5441949 159.69405,28.7512325 158.884374,27.3626958 C158.074698,25.9741591 156.798253,25.2798907 155.057645,25.2798907 C153.315734,25.2798907 152.047111,25.9741591 151.253081,27.3626958 C150.457747,28.7512325 150.061384,30.5441949 150.061384,32.7414527 L150.061384,33.22205 Z M189.916734,29.1021427 L185.425054,29.1021427 L184.714469,26.01231 C184.255522,25.6460352 183.67532,25.3409582 182.972557,25.0968184 C182.284137,24.8526787 181.520095,24.7305437 180.680431,24.7305437 C179.50438,24.7305437 178.572145,24.9976 177.883725,25.5315825 C177.196609,26.0504609 176.852399,26.7065783 176.852399,27.5000651 C176.852399,28.2477187 177.180963,28.8733675 177.838091,29.3768814 C178.495219,29.8651609 179.809476,30.3000552 181.78086,30.681434 C184.85137,31.2918485 187.12785,32.1921057 188.610301,33.3822057 C190.092751,34.5572015 190.833324,36.1821957 190.833324,38.2574488 C190.833324,40.4851752 189.8711,42.3086063 187.945349,43.7277419 C186.035244,45.1315129 183.514949,45.8333333 180.381855,45.8333333 C178.473054,45.8333333 176.715497,45.5587249 175.110487,45.0093779 C173.522427,44.4447966 172.10908,43.6437578 170.870445,42.6061313 L170.802646,37.044302 L175.478166,37.044302 L176.394756,40.2716343 C176.791119,40.6073102 177.33351,40.859002 178.02193,41.02684 C178.709047,41.1794436 179.427455,41.2557454 180.175851,41.2557454 C181.535741,41.2557454 182.567068,41.0116057 183.26983,40.5233261 C183.988238,40.0350466 184.34679,39.3712469 184.34679,38.5320572 C184.34679,37.7996379 183.988238,37.166437 183.26983,36.6323243 C182.551422,36.0983419 181.230646,35.6252967 179.304895,35.213319 C176.386933,34.618269 174.179556,33.7407982 172.68146,32.5811669 C171.19901,31.4063012 170.458436,29.8117756 170.458436,27.7975901 C170.458436,25.722337 171.313746,23.9370569 173.02567,22.4417497 C174.736289,20.931078 177.17314,20.1758724 180.336221,20.1758724 C182.261972,20.1758724 184.079506,20.4352464 185.791429,20.9539946 C187.517694,21.472873 188.869762,22.1365425 189.847631,22.9452636 L189.916734,29.1021427 Z M239.283494,12.027594 L239.283494,16.0559651 L235.708403,16.7425512 L235.708403,45.3527361 L229.039334,45.3527361 L215.562989,22.922347 L215.424784,22.9452636 L215.424784,40.6606955 L219.001178,41.3472816 L219.001178,45.3527361 L205.180624,45.3527361 L205.180624,41.3472816 L208.733549,40.6606955 L208.733549,16.7425512 L205.180624,16.0559651 L205.180624,12.027594 L208.733549,12.027594 L215.424784,12.027594 L228.901128,34.4579831 L229.039334,34.4350665 L229.039334,16.7425512 L225.464243,16.0559651 L225.464243,12.027594 L235.708403,12.027594 L239.283494,12.027594 Z M241.599089,32.7414527 C241.599089,29.0487575 242.630415,26.0275443 244.693067,23.6776828 C246.770062,21.3125871 249.635871,20.1300392 253.286584,20.1300392 C256.954246,20.1300392 259.818751,21.3049048 261.881404,23.6547663 C263.959703,26.0046277 264.998852,29.0335232 264.998852,32.7414527 L264.998852,33.22205 C264.998852,36.9452139 263.959703,39.9816614 261.881404,42.3315229 C259.818751,44.66615 256.969892,45.8333333 253.333522,45.8333333 C249.650213,45.8333333 246.770062,44.66615 244.693067,42.3315229 C242.630415,39.9816614 241.599089,36.9452139 241.599089,33.22205 L241.599089,32.7414527 Z M248.290323,33.22205 C248.290323,35.4803753 248.68799,37.2961241 249.48202,38.6694265 C250.277354,40.0274946 251.560318,40.7063984 253.333522,40.7063984 C255.059787,40.7063984 256.320587,40.0198123 257.114617,38.6465099 C257.924292,37.2732075 258.329782,35.4650108 258.329782,33.22205 L258.329782,32.7414527 C258.329782,30.5441949 257.924292,28.7512325 257.114617,27.3626958 C256.304941,25.9741591 255.028495,25.2798907 253.286584,25.2798907 C251.544672,25.2798907 250.277354,25.9741591 249.48202,27.3626958 C248.68799,28.7512325 248.290323,30.5441949 248.290323,32.7414527 L248.290323,33.22205 Z M277.786776,14.522507 L277.786776,20.5878501 L282.141555,20.5878501 L282.141555,25.2798907 L277.786776,25.2798907 L277.786776,37.891174 C277.786776,38.8524987 277.986261,39.5392151 278.382625,39.9511928 C278.780291,40.3631705 279.31486,40.5691593 279.987634,40.5691593 C280.445277,40.5691593 280.842944,40.553925 281.179331,40.5233261 C281.531364,40.4776232 281.919904,40.4088734 282.347559,40.3173373 L282.921242,45.1467472 C282.172846,45.3756527 281.430969,45.5434906 280.698219,45.6502611 C279.964165,45.772396 279.170135,45.8333333 278.314826,45.8333333 C276.007054,45.8333333 274.227331,45.2001325 272.974355,43.9337307 C271.737024,42.6671987 271.117707,40.6606955 271.117707,37.9140906 L271.117707,25.2798907 L267.473513,25.2798907 L267.473513,20.5878501 L271.117707,20.5878501 L271.117707,14.522507 L277.786776,14.522507 Z M285.213368,41.3472816 L288.444249,40.6606955 L288.444249,25.3028073 L284.869158,24.616091 L284.869158,20.5878501 L295.136787,20.5878501 L295.136787,40.6606955 L298.345503,41.3472816 L298.345503,45.3527361 L285.213368,45.3527361 L285.213368,41.3472816 Z M295.136787,14.6597461 L288.444249,14.6597461 L288.444249,9.64726392 L295.136787,9.64726392 L295.136787,14.6597461 Z M299.88141,25.2798907 L299.88141,20.5878501 L303.571237,20.5878501 L303.571237,18.8941061 C303.571237,15.7813567 304.517814,13.3856621 306.412274,11.7072826 C308.322378,10.0135387 311.004348,9.16666667 314.456879,9.16666667 C315.648576,9.16666667 316.825931,9.28867144 317.986336,9.5328112 C319.148045,9.76171664 320.492289,10.0973925 322.020373,10.5399691 L321.05815,15.8041431 C319.942075,15.4684672 318.926394,15.2090931 318.009805,15.0260209 C317.108861,14.8429486 316.069712,14.7512823 314.892357,14.7512823 C313.349931,14.7512823 312.188222,15.1023227 311.409838,15.8041431 C310.645796,16.5060937 310.263775,17.536038 310.263775,18.8941061 L310.263775,20.5878501 L325.298192,20.5878501 L325.298192,40.6606955 L328.849813,41.3472816 L328.849813,45.3527361 L315.374773,45.3527361 L315.374773,41.3472816 L318.605653,40.6606955 L318.605653,25.2798907 L310.263775,25.2798907 L310.263775,40.6606955 L313.494656,41.3472816 L313.494656,45.3527361 L299.996146,45.3527361 L299.996146,41.3472816 L303.571237,40.6606955 L303.571237,25.2798907 L299.88141,25.2798907 Z M343.082377,45.8333333 C339.507286,45.8333333 336.650604,44.6889364 334.511025,42.4001424 C332.372751,40.1113484 331.30231,37.2045879 331.30231,33.6798609 L331.30231,32.7642391 C331.30231,29.0869084 332.311471,26.0580129 334.32849,23.6776828 C336.35985,21.2973528 339.079631,20.1148049 342.486528,20.1298939 C345.833449,20.1298939 348.43067,21.1370669 350.279496,23.1512524 C352.128321,25.165438 353.052733,27.8891262 353.052733,31.3223172 L353.052733,34.9614969 L338.24779,34.9614969 L338.200853,35.0988662 C338.323412,36.7315427 338.865804,38.0743765 339.828027,39.1272374 C340.805897,40.179968 342.127976,40.7063984 343.792962,40.7063984 C345.275412,40.7063984 346.50492,40.5614771 347.482789,40.2716343 C348.460658,39.9664271 349.5311,39.4933819 350.691505,38.8524987 L352.502519,42.972406 C351.479015,43.7811271 350.149113,44.4601611 348.514115,45.0093779 C346.894764,45.5587249 345.085053,45.8333333 343.082377,45.8333333 Z M342.486528,25.2798907 C341.249197,25.2798907 340.271328,25.7529359 339.55292,26.6988961 C338.835816,27.6449865 338.392515,28.8886018 338.224321,30.4297422 L338.293424,30.5441949 L346.4984,30.5441949 L346.4984,29.9490147 C346.4984,28.5300094 346.162013,27.4008467 345.489239,26.561657 C344.832111,25.7071027 343.832077,25.2798907 342.486528,25.2798907 Z M356.742561,41.3472816 L359.951276,40.6606955 L359.951276,25.3028073 L356.39835,24.616091 L356.39835,20.5878501 L366.184868,20.5878501 L366.483444,24.2041133 C367.063646,22.922347 367.812042,21.9230016 368.728632,21.2058166 C369.646525,20.4886317 370.70784,20.1300392 371.915182,20.1300392 C372.265912,20.1300392 372.63359,20.1605078 373.015611,20.2215753 C373.411975,20.2674085 373.740539,20.3283458 374,20.4046476 L373.289415,26.4929072 L370.539646,26.4242877 C369.561777,26.4242877 368.752101,26.6150422 368.110618,26.9964211 C367.469136,27.3779301 366.980201,27.9195949 366.643814,28.6215455 L366.643814,40.6606955 L369.85253,41.3472816 L369.85253,45.3527361 L356.742561,45.3527361 L356.742561,41.3472816 Z" id="Shape" fill="#333333" fill-rule="nonzero"></path>
            <path d="M24.9538307,0 C27.9295672,0 30.341871,2.3706506 30.341871,5.29486071 C30.341871,6.00078174 30.2010786,6.67417775 29.9458348,7.28999166 L30.8743532,7.28999166 C30.8743532,7.28999166 33.1549522,7.01703001 35.3980153,9.2212892 C37.6409468,11.4255613 38.342011,14.5941944 38.342011,17.0738873 C38.342011,19.5537096 38.6924773,24.5133543 38.9727449,26.166526 C39.253276,27.8195683 40.1644093,35.6721665 49.9777283,41.4583323 L49.9777283,45.3159055 L30.5113749,45.3159055 C30.1070414,47.9672187 27.7885115,50 24.9888641,50 C22.1889534,50 19.8705552,47.9672187 19.4662216,45.3159055 L0,45.3159055 L0,41.4583323 C9.81335851,35.6721665 10.7244655,27.8195683 11.004957,26.166526 C11.2853169,24.5133543 11.6357041,19.5537096 11.6357041,17.0738873 C11.6357041,14.5941944 12.336742,11.4255613 14.5798447,9.2212892 C16.8227761,7.01703001 19.1035068,7.28999166 19.1035068,7.28999166 L19.9618265,7.28999166 C19.7067145,6.67417775 19.5657904,6.00078174 19.5657904,5.29486071 C19.5657904,2.3706506 21.9782259,0 24.9538307,0 Z M24.9538307,3.24016743 C26.1086177,3.24016743 27.0446432,4.16001843 27.0446432,5.29486071 C27.0446432,6.42958651 26.1086177,7.34943751 24.9538307,7.34943751 C23.7990437,7.34943751 22.8631499,6.42958651 22.8631499,5.29486071 C22.8631499,4.16001843 23.7990437,3.24016743 24.9538307,3.24016743 Z" id="Shape" fill="#333333"></path>
            <path d="M27.373965,40.8333333 C25.5077205,40.8333333 24.1475851,40.3991815 23.2935587,39.5028679 C22.4392716,38.6065544 22.0260709,37.6688745 22.0260709,36.634068 C22.0260709,36.2691626 22.0957847,35.9457532 22.2582764,35.6917199 C22.3974434,35.4375569 22.6017634,35.2342265 22.8570331,35.0957336 C23.1123028,34.9569814 23.4327256,34.8646528 23.8040981,34.8646528 C24.1753403,34.8646528 24.4957631,34.9340289 24.7510328,35.0957336 C25.0064328,35.2342265 25.2106225,35.4375569 25.3499198,35.6917199 C25.489217,35.9457532 25.581995,36.2643646 25.581995,36.634068 C25.581995,37.0913021 25.4658922,37.4610055 25.2570115,37.7335823 C25.0481308,38.0106978 24.7742273,38.2140282 24.4725686,38.3063568 C24.7278383,38.64818 25.141039,38.9022133 25.6934068,39.0640477 C26.2459048,39.2257524 26.7982725,39.2949989 27.3553312,39.2949989 C28.1399044,39.2949989 28.8315694,39.0870002 29.4536509,38.6759305 C30.0756021,38.2648608 30.5353221,37.6456627 30.8369808,36.8419371 C31.1386395,36.0380818 31.2733761,35.1233544 31.2733761,34.0885479 C31.2733761,32.9659515 31.1108843,32.0236034 30.7905918,31.2428302 C30.4656083,30.4389749 30.0060186,29.8429887 29.3839371,29.4782129 C28.7619859,29.089966 28.0935155,28.9053088 27.3553312,28.9053088 C26.872547,28.9053088 26.2968545,29.1131778 25.5821253,29.5012951 L24.2823216,30.1202338 L24.2823216,29.4782129 L30.1592586,21.6800776 L22.0260709,21.6800776 L22.0260709,29.7784105 C22.0260709,30.4436432 22.1653681,30.9933355 22.4624661,31.4321557 C22.7642551,31.8665669 23.2238449,32.074436 23.8226016,32.074436 C24.3055161,32.074436 24.7464721,31.9127312 25.182737,31.5939901 C25.6191323,31.2705807 25.9905047,30.8825931 26.3109275,30.4481819 C26.3573165,30.355983 26.4037055,30.2866068 26.4500945,30.2635247 C26.519678,30.2172307 26.5661972,30.1941486 26.635911,30.1941486 C26.7518835,30.1941486 26.8679863,30.2403129 27.025787,30.355983 C27.1649539,30.517558 27.2346677,30.6976766 27.2346677,30.9056752 C27.2346677,30.9980038 27.1881484,31.1366264 27.1649539,31.316745 C26.8401007,32.074436 26.3803807,32.6472104 25.781624,33.0353277 C25.182737,33.4234449 24.5375913,33.6313139 23.8226016,33.6313139 C22.0492654,33.6313139 20.847061,33.289361 20.155396,32.6010461 C19.4867952,31.9127312 19.1434386,30.9702534 19.1434386,29.8014927 L19.1434386,21.6800776 L14.9933185,21.6800776 L14.9933185,20.1648253 L19.1666331,20.1648253 L19.1666331,16.7231213 L18.2195681,15.7807731 L18.2195681,15 L20.9862279,15 L22.0215102,15.5266101 L22.0215102,20.1417431 L32.7867515,20.1185313 L33.8450979,21.1718813 L27.2578622,27.7596303 C27.6478685,27.5979255 28.0654996,27.5054673 28.5018949,27.459303 C29.2168846,27.459303 30.0245221,27.6902541 30.8973126,28.1476178 C31.7979886,28.5818994 32.4896535,29.2009678 32.9724378,29.9817409 C33.4550917,30.7623844 33.7800752,31.4968635 33.9193724,32.2083902 C34.0586697,32.9197872 34.1514477,33.5388556 34.1514477,34.1117598 C34.1514477,35.3728491 33.8728531,36.5416098 33.3438102,37.6225805 C32.8145067,38.6990126 32.0068693,39.5259501 30.9020036,40.0525602 C29.8156413,40.5793 28.6411921,40.8333333 27.373965,40.8333333 Z" id="Path" fill="#FFFFFF"></path>
        </g>
    </g>
</svg>