<?xml version="1.0" encoding="UTF-8"?>
<svg width="300px" height="50px" viewBox="0 0 300 50" version="1.1" xmlns="http://www.w3.org/2000/svg" xmlns:xlink="http://www.w3.org/1999/xlink">
    <!-- Generator: Sketch 63 (92445) - https://sketch.com -->
    <title>TRD Copy@2x</title>
    <desc>Created with Sketch.</desc>
    <g id="TRD-Copy" stroke="none" stroke-width="1" fill="none" fill-rule="evenodd">
        <g id="Group-2" fill="#333333">
            <path d="M141.671864,0.30758715 C142.091422,0.30758715 142.325273,0.541438824 142.325273,0.960996241 L142.325273,3.28575701 C142.325273,3.70531442 142.091422,3.9391661 141.671864,3.9391661 L137.68263,3.9391661 L137.68263,18.9125513 C137.68263,19.3321087 137.448778,19.5659604 137.029221,19.5659604 L134.553144,19.5659604 C134.133587,19.5659604 133.899735,19.3321087 133.899735,18.9125513 L133.899735,3.9391661 L129.910501,3.9391661 C129.490943,3.9391661 129.257092,3.70531442 129.257092,3.28575701 L129.257092,0.960996241 C129.257092,0.541438824 129.490943,0.30758715 129.910501,0.30758715 L141.671864,0.30758715 Z M150.853982,5.43856801 C154.918874,5.43856801 157.725094,8.64371155 157.725094,12.7017259 C157.725094,12.9974795 157.70446,13.2725991 157.683826,13.5477187 C157.63568,13.9672761 157.374316,14.1529819 156.982271,14.1529819 L147.256793,14.1529819 C147.739077,16.1077069 149.223898,17.0004699 150.984663,17.0004699 C152.02324,17.0004699 152.951769,16.5877905 153.49513,15.9962833 C153.742738,15.7693096 153.955955,15.6317498 154.299855,15.6317498 L156.500812,15.6111159 C156.975393,15.6111159 157.236757,15.9137474 157.037295,16.3264269 C155.998718,18.6443096 153.742738,19.9373718 150.936517,19.9373718 C146.458946,19.9373718 143.563312,16.8010082 143.563312,12.6879699 C143.563312,8.60244361 146.527726,5.43856801 150.853982,5.43856801 Z M147.241936,11.3605178 L154.178527,11.3605178 C153.768048,9.3945128 152.322295,8.62307758 150.833348,8.62307758 C148.950979,8.62307758 147.663695,9.63771886 147.241936,11.3605178 Z M164.190405,16.237013 L169.624017,16.237013 C170.043575,16.237013 170.277427,16.4708647 170.277427,16.8904221 L170.277427,18.9125513 C170.277427,19.3321087 170.043575,19.5659604 169.624017,19.5659604 L160.063611,19.5659604 C159.644053,19.5659604 159.410202,19.3321087 159.410202,18.9125513 L159.410202,17.647001 C159.410202,17.3374915 159.492738,17.0967618 159.671565,16.8353982 L165.222104,9.13892686 L160.33873,9.13892686 C159.919173,9.13892686 159.685321,8.90507519 159.685321,8.48551777 L159.685321,6.46338859 C159.685321,6.04383117 159.919173,5.80997949 160.33873,5.80997949 L169.348898,5.80997949 C169.768455,5.80997949 170.002307,6.04383117 170.002307,6.46338859 L170.002307,7.72893882 C170.002307,8.03844839 169.919771,8.27917806 169.740943,8.5405417 L164.190405,16.237013 Z M179.177546,19.9373718 C175.140166,19.9373718 171.900632,16.7803742 171.900632,12.6879699 C171.900632,8.59556562 175.140166,5.43856801 179.177546,5.43856801 C183.214927,5.43856801 186.45446,8.59556562 186.45446,12.6879699 C186.45446,16.7803742 183.214927,19.9373718 179.177546,19.9373718 Z M179.177546,16.4846206 C181.282211,16.4846206 182.905417,14.9164388 182.905417,12.6879699 C182.905417,10.459501 181.282211,8.89131921 179.177546,8.89131921 C177.072881,8.89131921 175.449675,10.459501 175.449675,12.6879699 C175.449675,14.9164388 177.072881,16.4846206 179.177546,16.4846206 Z M192.10129,9.80609193 C192.10129,12.2065106 199.508886,10.2600393 199.508886,15.5698479 C199.508886,18.5067498 196.977785,19.9373718 193.944592,19.9373718 C191.131494,19.9373718 188.744831,18.6305537 188.428443,15.8656015 C188.380297,15.4185321 188.641661,15.1846805 189.061218,15.1846805 L191.262175,15.1846805 C191.654221,15.1846805 191.798659,15.3978982 191.96373,15.7486757 C192.190704,16.4777427 192.933527,16.8147642 193.944592,16.8147642 C195.244532,16.8147642 195.959843,16.3676948 195.959843,15.5698479 C195.959843,13.2106972 188.552247,15.0952666 188.552247,9.80609193 C188.552247,6.91045796 191.083348,5.43856801 193.944592,5.43856801 C196.510082,5.43856801 198.869233,6.74538619 199.18562,9.51033835 C199.233766,9.95740772 198.972403,10.1912594 198.552845,10.1912594 L196.351888,10.1912594 C195.959843,10.1912594 195.815405,9.9780417 195.650333,9.60663021 C195.443994,8.8981972 194.749316,8.56117567 193.944592,8.56117567 C192.816601,8.56117567 192.10129,9.00824504 192.10129,9.80609193 Z M224.599795,18.7543575 L224.599795,18.7540825 C224.943694,19.1736399 224.764867,19.5656854 224.214627,19.5656854 L221.29836,19.5656854 C220.961338,19.5656854 220.699974,19.4625155 220.486757,19.1805179 L215.357151,12.8940347 L213.003503,12.8940347 L213.003503,18.9122763 C213.003503,19.3318337 212.769651,19.5656854 212.350094,19.5656854 L209.874017,19.5656854 C209.45446,19.5656854 209.220608,19.3318337 209.220608,18.9122763 L209.220608,0.960721272 C209.220608,0.541163856 209.45446,0.307312181 209.874017,0.307312181 L216.511278,0.307312181 C220.053443,0.307312181 222.907809,3.16167821 222.907809,6.70384328 C222.907809,9.0877546 221.444173,11.2317616 219.312546,12.2571325 L224.599795,18.7543575 Z M213.003503,3.85635524 L213.003503,9.55133132 L216.511278,9.55133132 C217.948778,9.55133132 219.124915,8.29953706 219.124915,6.70384328 C219.124915,5.10127151 217.948778,3.85635524 216.511278,3.85635524 L213.003503,3.85635524 Z M232.949675,5.43856801 C237.014568,5.43856801 239.820788,8.64371155 239.820788,12.7017259 C239.820788,12.9974795 239.800154,13.2725991 239.77952,13.5477187 C239.731374,13.9672761 239.47001,14.1529819 239.077965,14.1529819 L229.352486,14.1529819 C229.834771,16.1077069 231.319592,17.0004699 233.080357,17.0004699 C234.118934,17.0004699 235.047462,16.5877905 235.590824,15.9962833 C235.838431,15.7693096 236.051649,15.6317498 236.395549,15.6317498 L238.596505,15.6111159 C239.071087,15.6111159 239.33245,15.9137474 239.132989,16.3264269 C238.094412,18.6443096 235.838431,19.9373718 233.032211,19.9373718 C228.554639,19.9373718 225.659005,16.8010082 225.659005,12.6879699 C225.659005,8.60244361 228.623419,5.43856801 232.949675,5.43856801 Z M229.33763,11.3605178 L236.274221,11.3605178 C235.863742,9.3945128 234.417989,8.62307758 232.929041,8.62307758 C231.046673,8.62307758 229.759388,9.63771886 229.33763,11.3605178 Z M259.498718,5.80997949 C259.966422,5.80997949 260.179639,6.09885509 260.04208,6.54592447 L255.970309,19.0225991 C255.860261,19.3871326 255.578264,19.5659604 255.21373,19.5659604 L252.971505,19.5659604 C252.606972,19.5659604 252.324974,19.3871326 252.214927,19.0225991 L250.587594,14.036056 L248.954759,19.0225991 C248.844711,19.3871326 248.562714,19.5659604 248.19818,19.5659604 L245.955955,19.5659604 C245.591422,19.5659604 245.309424,19.3871326 245.199376,19.0225991 L241.127606,6.54592447 C240.990046,6.09885509 241.203264,5.80997949 241.670967,5.80997949 L244.098898,5.80997949 C244.463431,5.80997949 244.717917,5.96817327 244.827965,6.35334074 L247.353838,15.2328264 L249.142115,9.60690518 L248.143156,6.54592447 C248.005596,6.09885509 248.218814,5.80997949 248.686517,5.80997949 L250.495429,5.80997949 C250.859962,5.80997949 251.114448,5.98880725 251.224496,6.35334074 L253.917091,14.8773719 L256.341721,6.35334074 C256.451769,5.96817327 256.68562,5.80997949 257.070788,5.80997949 L259.498718,5.80997949 Z M267.683527,5.43856801 L267.683527,5.43884298 C270.723599,5.43884298 273.282211,7.24775446 273.282211,10.8311875 L273.282211,18.9128262 C273.282211,19.3323836 273.04836,19.5662353 272.628802,19.5662353 L270.469113,19.5662353 C270.049556,19.5662353 269.815704,19.3323836 269.815704,18.9128262 L269.815704,18.3746923 C269.024185,19.339812 267.832091,19.9373718 266.087833,19.9373718 C263.639269,19.9373718 261.452068,18.4998718 261.452068,15.6111159 C261.452068,12.7223599 263.639269,11.2848599 266.087833,11.2848599 C267.832091,11.2848599 269.024185,11.8067618 269.815704,12.5028145 L269.815704,11.0372522 C269.815704,9.40716849 268.990345,8.72624744 267.683527,8.72624744 C266.64495,8.72624744 265.881494,9.15956083 265.647642,9.9023838 C265.503204,10.2737953 265.358766,10.487013 264.966721,10.487013 L262.765764,10.487013 C262.346206,10.487013 262.084843,10.2531613 262.112355,9.80609193 C262.456254,6.99299385 264.863551,5.43856801 267.683527,5.43856801 Z M267.291482,17.3240104 C268.852785,17.3240104 269.815704,16.6018214 269.815704,15.6113908 C269.815704,14.5521803 268.852785,13.8987712 267.291482,13.8987712 C265.730178,13.8987712 265.001111,14.6209602 265.001111,15.6113908 C265.001111,16.6018214 265.730178,17.3240104 267.291482,17.3240104 Z M282.821984,5.59676221 C283.262175,5.52798231 283.496027,5.80310192 283.496027,6.22265934 L283.496027,8.82253972 C283.496027,9.23521915 283.317199,9.45531484 282.993933,9.45531484 C281.322582,9.44843685 279.726888,10.3288196 279.726888,12.7842622 L279.726888,18.9125517 C279.726888,19.3321091 279.493036,19.5659608 279.073479,19.5659608 L276.831254,19.5659608 C276.411696,19.5659608 276.177845,19.3321091 276.177845,18.9125517 L276.177845,6.463389 C276.177845,6.04383159 276.411696,5.80997991 276.831254,5.80997991 L279.073479,5.80997991 C279.493036,5.80997991 279.726888,6.04383159 279.726888,6.463389 L279.726888,7.88740799 C280.319771,6.48457291 281.456565,5.77008723 282.821984,5.59676179 L282.821984,5.59676221 Z M298.792678,0.30758715 C299.212235,0.30758715 299.446087,0.541438824 299.446087,0.960996241 L299.446087,18.9125513 C299.446087,19.3321087 299.212235,19.5659604 298.792678,19.5659604 L296.550453,19.5659604 C296.130895,19.5659604 295.897044,19.3321087 295.897044,18.9125513 L295.897044,17.9419293 C294.915417,19.1862952 293.442702,19.9373718 291.433228,19.9373718 C287.760381,19.9373718 284.727188,16.7803742 284.727188,12.6879699 C284.727188,8.59556562 287.760381,5.43856801 291.433228,5.43856801 C293.442702,5.43856801 294.915417,6.18964465 295.897044,7.43401056 L295.897044,0.960996241 C295.897044,0.541438824 296.130895,0.30758715 296.550453,0.30758715 L298.792678,0.30758715 Z M292.086637,16.5671565 C294.273838,16.5671565 295.897044,14.9989747 295.897044,12.6879699 C295.897044,10.3769651 294.273838,8.80878332 292.086637,8.80878332 C289.899436,8.80878332 288.27623,10.3769651 288.27623,12.6879699 C288.27623,14.9989747 289.899436,16.5671565 292.086637,16.5671565 Z M138.886278,30.177717 C144.196087,30.177717 148.171565,34.3939252 148.171565,39.8069036 C148.171565,45.2198821 144.196087,49.4360902 138.886278,49.4360902 L131.354879,49.4360902 C130.935321,49.4360902 130.70147,49.2022386 130.70147,48.7826811 L130.70147,30.8311261 C130.70147,30.4115687 130.935321,30.177717 131.354879,30.177717 L138.886278,30.177717 Z M138.886278,45.8045113 C142.228982,45.8045113 144.52623,43.3628247 144.52623,39.8069036 C144.52623,36.2509826 142.228982,33.809296 138.886278,33.809296 L134.484364,33.809296 L134.484364,45.8045113 L138.886278,45.8045113 Z M151.349197,33.754272 C150.929639,33.754272 150.695788,33.5204204 150.695788,33.100863 L150.695788,30.8311261 C150.695788,30.4115687 150.929639,30.177717 151.349197,30.177717 L153.591422,30.177717 C154.010979,30.177717 154.244831,30.4115687 154.244831,30.8311261 L154.244831,33.100863 C154.244831,33.5204204 154.010979,33.754272 153.591422,33.754272 L151.349197,33.754272 Z M151.349197,49.4360902 C150.929639,49.4360902 150.695788,49.2022386 150.695788,48.7826811 L150.695788,36.3335185 C150.695788,35.913961 150.929639,35.6801094 151.349197,35.6801094 L153.591422,35.6801094 C154.010979,35.6801094 154.244831,35.913961 154.244831,36.3335185 L154.244831,48.7826811 C154.244831,49.2022386 154.010979,49.4360902 153.591422,49.4360902 L151.349197,49.4360902 Z M160.627606,39.6762218 C160.627606,42.0766405 168.035202,40.1301692 168.035202,45.4399778 C168.035202,48.3768797 165.504101,49.8075017 162.470907,49.8075017 C159.657809,49.8075017 157.271147,48.5006835 156.954759,45.7357314 C156.906613,45.288662 157.167977,45.0548103 157.587534,45.0548103 L159.788491,45.0548103 C160.180537,45.0548103 160.324974,45.268028 160.490046,45.6188055 C160.71702,46.3478725 161.459843,46.6848941 162.470907,46.6848941 C163.770848,46.6848941 164.486159,46.2378247 164.486159,45.4399778 C164.486159,43.0808271 157.078563,44.9653964 157.078563,39.6762218 C157.078563,36.7805878 159.609663,35.3086979 162.470907,35.3086979 C165.036398,35.3086979 167.395549,36.6155161 167.711936,39.3804682 C167.760082,39.8275376 167.498718,40.0613893 167.079161,40.0613893 L164.878204,40.0613893 C164.486159,40.0613893 164.341721,39.8481716 164.176649,39.4767601 C163.970309,38.7683271 163.275632,38.4313055 162.470907,38.4313055 C161.342917,38.4313055 160.627606,38.8783749 160.627606,39.6762218 Z M177.162295,35.6801094 C177.581852,35.6801094 177.815704,35.913961 177.815704,36.3335185 L177.815704,38.4381835 C177.815704,38.8577409 177.581852,39.0915926 177.162295,39.0915926 L175.449675,39.0915926 L175.449675,48.7826811 C175.449675,49.2022386 175.215824,49.4360902 174.796266,49.4360902 L172.554041,49.4360902 C172.134484,49.4360902 171.900632,49.2022386 171.900632,48.7826811 L171.900632,39.0915926 L170.181135,39.0915926 C169.761577,39.0915926 169.527726,38.8577409 169.527726,38.4381835 L169.527726,36.3335185 C169.527726,35.913961 169.761577,35.6801094 170.181135,35.6801094 L171.900632,35.6801094 L171.900632,31.9316046 C171.900632,31.5120472 172.134484,31.2781955 172.554041,31.2781955 L174.796266,31.2781955 C175.215824,31.2781955 175.449675,31.5120472 175.449675,31.9316046 L175.449675,35.6801094 L177.162295,35.6801094 Z M186.530117,35.4668921 C186.970309,35.3981122 187.204161,35.6732318 187.204161,36.0927892 L187.204161,38.6926696 C187.204161,39.105349 187.025333,39.3254447 186.702067,39.3254447 C185.030716,39.3185667 183.435022,40.1989495 183.435022,42.6543921 L183.435022,48.7826816 C183.435022,49.202239 183.20117,49.4360906 182.781613,49.4360906 L180.539388,49.4360906 C180.11983,49.4360906 179.885979,49.202239 179.885979,48.7826816 L179.885979,36.3335189 C179.885979,35.9139615 180.11983,35.6801098 180.539388,35.6801098 L182.781613,35.6801098 C183.20117,35.6801098 183.435022,35.9139615 183.435022,36.3335189 L183.435022,37.7575379 C184.027905,36.3547028 185.164699,35.6402171 186.530118,35.4668917 L186.530117,35.4668921 Z M189.810919,33.754272 C189.391362,33.754272 189.15751,33.5204204 189.15751,33.100863 L189.15751,30.8311261 C189.15751,30.4115687 189.391362,30.177717 189.810919,30.177717 L192.053144,30.177717 C192.472702,30.177717 192.706553,30.4115687 192.706553,30.8311261 L192.706553,33.100863 C192.706553,33.5204204 192.472702,33.754272 192.053144,33.754272 L189.810919,33.754272 Z M189.810919,49.4360902 C189.391362,49.4360902 189.15751,49.2022386 189.15751,48.7826811 L189.15751,36.3335185 C189.15751,35.913961 189.391362,35.6801094 189.810919,35.6801094 L192.053144,35.6801094 C192.472702,35.6801094 192.706553,35.913961 192.706553,36.3335185 L192.706553,48.7826811 C192.706553,49.2022386 192.472702,49.4360902 192.053144,49.4360902 L189.810919,49.4360902 Z M203.965824,35.3086979 C207.638671,35.3086979 210.671864,38.4656955 210.671864,42.5580998 C210.671864,46.6505041 207.638671,49.8075017 203.965824,49.8075017 C201.95635,49.8075017 200.483635,49.0564251 199.502008,47.8120592 L199.502008,48.7826811 C199.502008,49.2022386 199.268157,49.4360902 198.848599,49.4360902 L196.606374,49.4360902 C196.186817,49.4360902 195.952965,49.2022386 195.952965,48.7826811 L195.952965,30.8311261 C195.952965,30.4115687 196.186817,30.177717 196.606374,30.177717 L198.848599,30.177717 C199.268157,30.177717 199.502008,30.4115687 199.502008,30.8311261 L199.502008,37.3041404 C200.483635,36.0597745 201.95635,35.3086979 203.965824,35.3086979 Z M203.312415,46.4372864 C205.499616,46.4372864 207.122821,44.8691046 207.122821,42.5580998 C207.122821,40.247095 205.499616,38.6789132 203.312415,38.6789132 C201.125214,38.6789132 199.502008,40.247095 199.502008,42.5580998 C199.502008,44.8691046 201.125214,46.4372864 203.312415,46.4372864 Z M223.932905,35.6801094 C224.352462,35.6801094 224.586314,35.913961 224.586314,36.3335185 L224.586314,48.7826811 C224.586314,49.2022386 224.352462,49.4360902 223.932905,49.4360902 L221.69068,49.4360902 C221.271123,49.4360902 221.037271,49.2022386 221.037271,48.7826811 L221.037271,48.0222505 C220.266936,49.1857312 219.005788,49.8075017 217.295369,49.8075017 C214.736757,49.8075017 212.824675,47.8403964 212.824675,44.4701811 L212.824675,36.3335185 C212.824675,35.913961 213.058527,35.6801094 213.478084,35.6801094 L215.720309,35.6801094 C216.139867,35.6801094 216.373718,35.913961 216.373718,36.3335185 L216.373718,44.2019395 C216.373718,45.7769993 217.309125,46.5198223 218.554041,46.5198223 C219.950273,46.5198223 221.036996,45.7150974 221.036996,43.6448223 L221.036996,36.3335185 C221.036996,35.913961 221.270848,35.6801094 221.690405,35.6801094 L223.932905,35.6801094 Z M234.277127,35.6801094 C234.696685,35.6801094 234.930537,35.913961 234.930537,36.3335185 L234.930537,38.4381835 C234.930537,38.8577409 234.696685,39.0915926 234.277127,39.0915926 L232.564508,39.0915926 L232.564508,48.7826811 C232.564508,49.2022386 232.330656,49.4360902 231.911099,49.4360902 L229.668874,49.4360902 C229.249316,49.4360902 229.015465,49.2022386 229.015465,48.7826811 L229.015465,39.0915926 L227.295967,39.0915926 C226.87641,39.0915926 226.642558,38.8577409 226.642558,38.4381835 L226.642558,36.3335185 C226.642558,35.913961 226.87641,35.6801094 227.295967,35.6801094 L229.015465,35.6801094 L229.015465,31.9316046 C229.015465,31.5120472 229.249316,31.2781955 229.668874,31.2781955 L231.911099,31.2781955 C232.330656,31.2781955 232.564508,31.5120472 232.564508,31.9316046 L232.564508,35.6801094 L234.277127,35.6801094 Z M243.555537,49.8075017 C239.518156,49.8075017 236.278623,46.6505041 236.278623,42.5580998 C236.278623,38.4656955 239.518156,35.3086979 243.555537,35.3086979 C247.592917,35.3086979 250.83245,38.4656955 250.83245,42.5580998 C250.83245,46.6505041 247.592917,49.8075017 243.555537,49.8075017 Z M243.555537,46.3547505 C245.660202,46.3547505 247.283407,44.7865687 247.283407,42.5580998 C247.283407,40.3296309 245.660202,38.7614491 243.555537,38.7614491 C241.450871,38.7614491 239.827666,40.3296309 239.827666,42.5580998 C239.827666,44.7865687 241.450871,46.3547505 243.555537,46.3547505 Z M259.987055,35.4668921 C260.427247,35.3981122 260.661098,35.6732318 260.661098,36.0927892 L260.661098,38.6926696 C260.661098,39.105349 260.482271,39.3254447 260.159005,39.3254447 C258.487653,39.3185667 256.89196,40.1989495 256.89196,42.6543921 L256.89196,48.7826816 C256.89196,49.202239 256.658108,49.4360906 256.238551,49.4360906 L253.996326,49.4360906 C253.576768,49.4360906 253.342917,49.202239 253.342917,48.7826816 L253.342917,36.3335189 C253.342917,35.9139615 253.576768,35.6801098 253.996326,35.6801098 L256.238551,35.6801098 C256.658108,35.6801098 256.89196,35.9139615 256.89196,36.3335189 L256.89196,37.7575379 C257.484842,36.3547028 258.621637,35.6402171 259.987056,35.4668917 L259.987055,35.4668921 Z" id="Tezos-Reward-Distrib"></path>
            <path d="M20.6890544,24.428822 C26.0890461,17.7603876 37.907062,17.5447184 43.8453759,22.3534702 C47.208702,25.0770379 50.1203942,29.7850404 47.4501881,32.5465221 C45.405858,34.6607334 38.3804242,34.6695934 36.038865,37.5611782 C33.6467179,40.5152339 34.7247865,43.4515329 33.3998423,45.742894 C31.7338802,48.6240121 27.7039598,50.3004147 24.3962649,47.6218961 C18.457951,42.8131443 15.2890626,31.0972565 20.6890544,24.428822 Z M102.174005,3.62415929 L107.946457,4.6781961 L107.946457,31.7768043 C108.219469,33.7959063 108.501869,35.163483 108.793654,35.8795343 C109.08544,36.5955856 109.677254,37.3733528 110.569095,38.212836 L105.702175,40.1014631 C104.87733,38.7441133 104.314191,37.692933 104.012759,36.9479222 C103.711326,36.2029115 103.429785,35.1664073 103.168136,33.8384098 C102.832725,35.4880858 102.306481,36.7136536 101.589404,37.5151134 C100.872326,38.3165732 99.5306891,39.1786898 97.5644922,40.1014631 L93.0263025,40.1014631 C90.4664698,38.4191998 88.8335715,37.0118902 88.1276075,35.8795343 C86.6845416,33.5648777 86.5537848,30.2681051 86.4415832,28.3058446 C86.1497778,23.2025443 87.9246883,19.5787781 91.6876167,16.6895766 C94.1962357,14.7634423 97.6916985,14.1091505 102.174005,14.7267014 L102.174005,3.62415929 Z M60.5316447,8.13027109 L60.5316447,15.1668157 L66.6705922,15.1668157 L65.8168471,18.9240838 L60.5316447,18.9240838 L60.5316447,34.5305888 C60.9543679,35.1412977 61.5622064,35.498759 62.3551602,35.6029727 C63.148114,35.7071865 64.5865913,35.6186617 66.6705922,35.3373984 L67.6627453,39.2474528 L60.5316447,39.7671429 C58.6048057,39.6670012 57.3037665,39.351668 56.6285271,38.8211433 C55.9532877,38.2906186 55.3749687,37.1293703 54.8935701,35.3373984 L54.8935701,18.9240838 L50.479585,18.9240838 L50.479585,15.1668157 L54.8935701,15.1668157 L56.027718,9.53812968 L60.5316447,8.13027109 Z M81.4653201,14.7802976 L86.1510674,14.97458 L84.6571445,20.4898835 C82.8379771,19.8570942 81.2374942,19.9947552 79.8556959,20.9028664 C78.4738976,21.8109776 77.5912469,23.3052201 77.2077437,25.3855938 L77.2077437,39.6644127 L71.3473619,39.6644127 L71.3473619,24.1324685 C71.2169595,22.2619 71.0224964,20.9021851 70.7639725,20.0533237 C70.5054485,19.2044623 69.9343334,18.0504066 69.0506269,16.5911566 L73.47615,14.7802976 C74.2265372,15.7447472 74.7345641,16.5170512 75.0002308,17.0972095 C75.2658974,17.6773678 75.5375836,18.6077879 75.8152894,19.88847 C76.8323276,17.9814506 77.7119801,16.6924006 78.454247,16.0213198 C79.1965138,15.350239 80.2002048,14.9365649 81.4653201,14.7802976 Z M0.121734594,32.6151138 C0.795026522,30.2670658 4.07402372,29.1473254 7.44557981,30.1141036 C10.8171359,31.0808817 13.0045112,33.7680792 12.3312193,36.1161272 C11.6579273,38.4641752 8.37893015,39.5839157 5.00737405,38.6171375 C1.63581796,37.6503594 -0.551557334,34.9631618 0.121734594,32.6151138 Z M97.4070368,18.7952271 C96.4731596,18.8202757 95.7316779,19.084596 95.1825916,19.5881878 C94.3589622,20.3435757 93.4284508,21.0928918 92.841332,23.6062057 C92.4499194,25.2817483 92.3799247,27.8258652 92.6313478,31.2385565 C93.0481569,33.2025872 93.4851165,34.4646161 93.9422267,35.0246431 C94.7724548,36.0417943 96.8503996,36.0965764 97.5644922,35.7778872 C99.5202588,34.9050569 99.9002494,34.9522114 101.112839,32.5465221 C101.557593,31.6641619 101.946645,29.8516492 102.279995,27.108984 L102.325107,26.7292188 L102.325107,18.9240838 L97.4070368,18.7952271 Z M1.36242818,13.1891841 C3.0967321,11.0474972 7.18585101,11.4841195 10.4957309,14.1644073 C13.8056108,16.8446952 15.0828674,20.7536782 13.3485635,22.8953652 C11.6142596,25.0370521 7.52514069,24.6004298 4.21526081,21.920142 C0.905380935,19.2398541 -0.371875742,15.3308711 1.36242818,13.1891841 Z M14.0533618,1.35727922 C16.2828801,-0.262560659 20.1196595,1.21752594 22.6230484,4.66314518 C25.1264373,8.10876441 25.3484533,12.2151304 23.118935,13.8349702 C20.8894166,15.4548101 17.0526372,13.9747235 14.5492483,10.5291043 C12.0458594,7.08348506 11.8238434,2.9771191 14.0533618,1.35727922 Z M34.1478022,0.927929171 C36.577094,0.672600316 38.8436332,3.29337142 39.2102593,6.78158526 C39.5768853,10.2697991 37.9047644,13.3045401 35.4754726,13.5598689 C33.0461808,13.8151978 30.7796416,11.1944267 30.4130155,7.70621284 C30.0463895,4.217999 31.7185104,1.18325803 34.1478022,0.927929171 Z" id="Combined-Shape"></path>
        </g>
    </g>
</svg>