<?xml version="1.0" encoding="UTF-8"?>
<svg width="200px" height="50px" viewBox="0 0 200 50" version="1.1" xmlns="http://www.w3.org/2000/svg" xmlns:xlink="http://www.w3.org/1999/xlink">
    <!-- Generator: Sketch 63 (92445) - https://sketch.com -->
    <title>trust copy@2x</title>
    <desc>Created with Sketch.</desc>
    <g id="trust-copy" stroke="none" stroke-width="1" fill="none" fill-rule="evenodd">
        <g id="horizontal_blue">
            <path d="M66.3705074,19.737811 L60.9243697,19.737811 L60.9243697,16.5575333 L75.7548723,16.5575333 L75.7548723,19.737811 L70.3087346,19.737811 L70.3087346,33.4207644 L66.3705074,33.4207644 L66.3705074,19.737811 Z M79.4860179,22.1707989 C79.9395999,21.5443253 80.5477047,21.0704343 81.309281,20.7491257 C82.0871505,20.4283379 82.9785469,20.2674233 83.9834702,20.2674233 L83.9834702,23.7367225 C83.5624746,23.7044354 83.2786573,23.6882918 83.132544,23.6882918 C82.0466802,23.6882918 81.1957541,23.9934568 80.5797655,24.6037869 C79.963777,25.1979733 79.6557827,26.0973248 79.6557827,27.3018414 L79.6557827,33.4207644 L75.8631433,33.4207644 L75.8631433,20.4601043 L79.4860179,20.4601043 L79.4860179,22.1707989 Z M98.052922,20.4601043 L98.052922,33.4207644 L94.4542243,33.4207644 L94.4542243,31.8787958 C93.9517627,32.4406952 93.3520674,32.8744878 92.6551383,33.1796528 C91.9582093,33.4686743 91.2045168,33.6134454 90.3940609,33.6134454 C88.6759154,33.6134454 87.3146437,33.1234108 86.3097204,32.1438623 C85.3047971,31.1643139 84.8023355,29.7108744 84.8023355,27.7835438 L84.8023355,20.4601043 L88.5949749,20.4601043 L88.5949749,27.2294558 C88.5949749,29.3171803 89.4784875,30.3613029 91.2449871,30.3613029 C92.1526767,30.3613029 92.8821921,30.0722814 93.4335334,29.4937177 C93.9843491,28.8995312 94.259757,28.0246554 94.259757,26.8680488 L94.259757,20.4601043 L98.052922,20.4601043 Z M104.508713,33.6134454 C103.422324,33.6134454 102.360637,33.4848178 101.323653,33.2280834 C100.286143,32.9546847 99.4593941,32.6177534 98.8434056,32.2162479 L100.107969,29.5181934 C100.691371,29.8874118 101.396184,30.1925768 102.222933,30.4331677 C103.049682,30.6581357 103.860138,30.7706198 104.654301,30.7706198 C106.25892,30.7706198 107.061492,30.3774464 107.061492,29.5900582 C107.061492,29.2208398 106.842322,28.9557732 106.405033,28.7953793 C105.967219,28.6349854 105.294467,28.4980257 104.386777,28.3855417 C103.317206,28.2251478 102.433694,28.0402782 101.736765,27.8319744 C101.039836,27.6231499 100.432257,27.2534107 99.9135017,26.7237984 C99.4110401,26.1936653 99.1598092,25.439085 99.1598092,24.4590158 C99.1598092,23.640382 99.3947469,22.9175679 99.8646221,22.2910943 C100.350791,21.6484772 101.04772,21.1506312 101.955409,20.7975564 C102.879392,20.4444815 103.965256,20.2674233 105.213526,20.2674233 C106.137509,20.2674233 107.053082,20.3720959 107.960772,20.5809204 C108.884755,20.7736014 109.646857,21.0464794 110.246552,21.3995542 L108.981988,24.0736538 C107.831477,23.4315574 106.575323,23.1102489 105.213526,23.1102489 C104.40307,23.1102489 103.795491,23.2227329 103.390263,23.4471802 C102.985035,23.6721483 102.782158,23.9611698 102.782158,24.3147654 C102.782158,24.7162709 103.001328,24.9969602 103.438617,25.1578749 C103.876431,25.3182688 104.57336,25.4708513 105.529404,25.6156224 C106.5995,25.7921598 107.474604,25.9848408 108.155239,26.1936653 C108.836401,26.3863463 109.427687,26.7477533 109.930148,27.2778864 C110.43261,27.8074987 110.683841,28.5464563 110.683841,29.4937177 C110.683841,30.2967287 110.441019,31.0117314 109.954851,31.6376842 C109.468157,32.2641578 108.754935,32.7541924 107.815184,33.1072672 C106.891201,33.4447193 105.789044,33.6134454 104.508713,33.6134454 Z M120.001982,32.7942908 C119.62934,33.0671688 119.167349,33.2759933 118.616007,33.4207644 C118.081485,33.5488712 117.51385,33.6134454 116.914155,33.6134454 C115.358416,33.6134454 114.150616,33.2197513 113.291806,32.4328838 C112.448764,31.6460163 112.027242,30.4894097 112.027242,28.9641054 L112.027242,23.640382 L110.009512,23.640382 L110.009512,20.7491257 L112.027242,20.7491257 L112.027242,17.5938445 L115.819882,17.5938445 L115.819882,20.7491257 L119.077999,20.7491257 L119.077999,23.640382 L115.819882,23.640382 L115.819882,28.9156748 C115.819882,29.4619514 115.958111,29.8874118 116.233519,30.1925768 C116.52522,30.4815983 116.930448,30.6263694 117.449203,30.6263694 C118.048898,30.6263694 118.559244,30.4654548 118.980765,30.1441462 L120.001982,32.7942908 Z M152.089624,16.5575333 L146.522076,33.4207644 L142.291622,33.4207644 L138.547337,22.0020729 L134.68164,33.4207644 L130.475364,33.4207644 L124.883638,16.5575333 L128.967979,16.5575333 L132.809498,28.4100174 L136.821307,16.5575333 L140.467833,16.5575333 L144.358232,28.5063579 L148.321162,16.5575333 L152.089624,16.5575333 Z M156.864587,20.2674233 C158.890726,20.2674233 160.446991,20.7491257 161.532855,21.7130514 C162.618718,22.6603128 163.16165,24.0976087 163.16165,26.0249393 L163.16165,33.4207644 L159.611832,33.4207644 L159.611832,31.8064102 C158.899136,33.0109267 157.569925,33.6134454 155.624726,33.6134454 C154.619802,33.6134454 153.744699,33.4447193 152.99889,33.1072672 C152.269375,32.7703359 151.71015,32.3042562 151.321215,31.7100697 C150.93228,31.1158833 150.737813,30.4414998 150.737813,29.6863987 C150.737813,28.4824029 151.191921,27.5346208 152.09961,26.8440938 C153.023067,26.1535669 154.441628,25.8083034 156.354241,25.8083034 L159.369011,25.8083034 C159.369011,24.9891488 159.11778,24.3626753 158.615318,23.9294034 C158.112857,23.4794673 157.359164,23.2544992 156.354241,23.2544992 C155.657312,23.2544992 154.968267,23.3669833 154.287631,23.5919513 C153.622763,23.8007759 153.055654,24.0897973 152.585779,24.4590158 L151.223981,21.8333468 C151.937204,21.3355008 152.78813,20.9501389 153.77676,20.6772609 C154.781683,20.4038622 155.811309,20.2674233 156.864587,20.2674233 Z M156.572885,31.0835962 C157.22146,31.0835962 157.796979,30.9393458 158.29944,30.6503243 C158.801902,30.3451593 159.15825,29.9035554 159.369011,29.3255124 L159.369011,28.0001797 L156.767353,28.0001797 C155.211614,28.0001797 154.433219,28.5063579 154.433219,29.5181934 C154.433219,29.9998958 154.619802,30.3852578 154.992444,30.6742793 C155.381379,30.9471572 155.908543,31.0835962 156.572885,31.0835962 Z M165.135757,15.5462185 L168.928396,15.5462185 L168.928396,33.4207644 L165.135757,33.4207644 L165.135757,15.5462185 Z M170.989751,15.5462185 L174.782916,15.5462185 L174.782916,33.4207644 L170.989751,33.4207644 L170.989751,15.5462185 Z M189.657042,26.9883442 C189.657042,27.0367748 189.632865,27.3742269 189.583985,28.0001797 L179.688749,28.0001797 C179.866923,28.8031907 180.288445,29.4374757 180.952787,29.9035554 C181.617655,30.3691143 182.443879,30.6018937 183.433035,30.6018937 C184.11367,30.6018937 184.713366,30.5055532 185.232121,30.3128723 C185.766643,30.1040477 186.261221,29.7832599 186.714803,29.3494673 L188.733059,31.5173888 C187.501082,32.9145863 185.701996,33.6134454 183.335801,33.6134454 C181.860477,33.6134454 180.555969,33.3322353 179.421225,32.7703359 C178.286482,32.1917722 177.411379,31.3970933 176.79539,30.3852578 C176.179402,29.3734223 175.871407,28.2251478 175.871407,26.9404343 C175.871407,25.6718644 176.171518,24.5314013 176.771213,23.5195658 C177.387202,22.4921075 178.221835,21.6969079 179.275112,21.1350085 C180.345208,20.5564447 181.536189,20.2674233 182.849107,20.2674233 C184.129964,20.2674233 185.288884,20.540822 186.325868,21.0865778 C187.363378,21.6328544 188.173834,22.4197219 188.757236,23.4471802 C189.356931,24.4590158 189.657042,25.6395773 189.657042,26.9883442 Z M182.87381,23.1102489 C182.014474,23.1102489 181.293368,23.3508397 180.709966,23.8330629 C180.126038,24.3147654 179.76969,24.9730053 179.63987,25.8083034 L186.083047,25.8083034 C185.953227,24.9891488 185.596878,24.3387203 185.012951,23.8570179 C184.429549,23.3591719 183.716326,23.1102489 182.87381,23.1102489 Z M199.159664,32.7942908 C198.787022,33.0671688 198.325031,33.2759933 197.774215,33.4207644 C197.239167,33.5488712 196.672058,33.6134454 196.072363,33.6134454 C194.516098,33.6134454 193.308824,33.2197513 192.449488,32.4328838 C191.606446,31.6460163 191.18545,30.4894097 191.18545,28.9641054 L191.18545,23.640382 L189.167194,23.640382 L189.167194,20.7491257 L191.18545,20.7491257 L191.18545,17.5938445 L194.97809,17.5938445 L194.97809,20.7491257 L198.236207,20.7491257 L198.236207,23.640382 L194.97809,23.640382 L194.97809,28.9156748 C194.97809,29.4619514 195.115794,29.8874118 195.391201,30.1925768 C195.682903,30.4815983 196.088131,30.6263694 196.606885,30.6263694 C197.206581,30.6263694 197.717452,30.4654548 198.138973,30.1441462 L199.159664,32.7942908 Z" id="Shape" fill="#333333" fill-rule="nonzero"></path>
            <rect id="Rectangle" stroke="#333333" fill-rule="nonzero" x="0" y="0" width="50" height="50" rx="25"></rect>
            <path d="M24.9918811,11.3445378 C29.6648031,15.2546354 35.0237831,15.013491 36.5546218,15.013491 C36.2199467,37.2500462 33.6678525,32.8403976 24.9918811,39.0756303 C16.3160664,32.8403976 13.7802622,37.2500462 13.4453782,15.013491 C14.9604491,15.013491 20.3191158,15.2546354 24.9918811,11.3445378 Z" id="Path" stroke="#333333" stroke-width="3.06304" stroke-linecap="round" stroke-linejoin="round"></path>
        </g>
    </g>
</svg>